<svg version="1.1" viewBox="0.0 0.0 1024.0 768.0" fill="none" stroke="none" stroke-linecap="square" stroke-miterlimit="10" xmlns:xlink="http://www.w3.org/1999/xlink" xmlns="http://www.w3.org/2000/svg"><clipPath id="p.0"><path d="m0 0l1024.0 0l0 768.0l-1024.0 0l0 -768.0z" clip-rule="nonzero"/></clipPath><g clip-path="url(#p.0)"><path fill="#000000" fill-opacity="0.0" d="m0 0l1024.0 0l0 768.0l-1024.0 0z" fill-rule="evenodd"/><path fill="#000000" fill-opacity="0.0" d="m177.32938 245.02728c0 -25.080566 33.51181 -50.16902 67.02362 -50.161148c33.51181 0.007873535 67.02362 25.112076 67.02362 50.224136" fill-rule="evenodd"/><path stroke="#000000" stroke-width="4.0" stroke-linejoin="round" stroke-linecap="butt" d="m177.32938 245.0273c0 -25.080597 33.51181 -50.169037 67.02362 -50.161163c16.75592 0.0039367676 33.51181 6.281952 46.078735 15.698013c3.1417236 2.3539886 6.0216675 4.904129 8.57431 7.6013947c1.2763367 1.3486328 2.4708557 2.7340393 3.5753784 4.150116l0.2635193 0.3422699" fill-rule="evenodd"/><path fill="#000000" stroke="#000000" stroke-width="4.0" stroke-linecap="butt" d="m296.66956 225.0066l12.628326 14.618027l-0.27755737 -19.315369z" fill-rule="evenodd"/><path fill="#000000" fill-opacity="0.0" d="m432.87924 245.02728c0 -25.080566 33.519684 -50.16902 67.03937 -50.161148c33.519684 0.007873535 67.0394 25.112076 67.0394 50.224136" fill-rule="evenodd"/><path stroke="#000000" stroke-width="4.0" stroke-linejoin="round" stroke-linecap="butt" d="m432.87927 245.0273c0 -25.080597 33.519684 -50.169037 67.03937 -50.161163c16.759827 0.0039367676 33.519653 6.281952 46.08954 15.698013c3.142517 2.3539886 6.0230713 4.904129 8.576355 7.6013947c1.2766113 1.3486328 2.4713745 2.7340393 3.5761719 4.150116l0.26409912 0.342865" fill-rule="evenodd"/><path fill="#000000" stroke="#000000" stroke-width="4.0" stroke-linecap="butt" d="m552.2496 225.00763l12.6293335 14.617142l-0.27893066 -19.315353z" fill-rule="evenodd"/><path fill="#000000" fill-opacity="0.0" d="m688.43176 245.02728c0 -25.080566 33.519653 -50.16902 67.03937 -50.161148c33.519653 0.007873535 67.03937 25.112076 67.03937 50.224136" fill-rule="evenodd"/><path stroke="#000000" stroke-width="4.0" stroke-linejoin="round" stroke-linecap="butt" d="m688.43176 245.0273c0 -25.080597 33.519653 -50.169037 67.03937 -50.161163c16.759827 0.0039367676 33.519653 6.281952 46.08954 15.698013c3.142517 2.3539886 6.0230713 4.904129 8.576416 7.6013947c1.2765503 1.3486328 2.4713745 2.7340393 3.5761719 4.150116l0.2640381 0.342865" fill-rule="evenodd"/><path fill="#000000" stroke="#000000" stroke-width="4.0" stroke-linecap="butt" d="m807.80206 225.00763l12.6293335 14.617142l-0.27893066 -19.315353z" fill-rule="evenodd"/><path fill="#95362d" d="m30.6795 305.77167l0 0c0 -47.444305 38.46121 -85.90553 85.90552 -85.90553l0 0c22.783562 0 44.633965 9.050735 60.74436 25.161148c16.110413 16.110413 25.161148 37.960815 25.161148 60.744385l0 0c0 47.444305 -38.461212 85.90549 -85.90551 85.90549l0 0c-47.444305 0 -85.90552 -38.46118 -85.90552 -85.90549z" fill-rule="evenodd"/><path stroke="#c22d29" stroke-width="4.0" stroke-linejoin="round" stroke-linecap="butt" d="m30.6795 305.77167l0 0c0 -47.444305 38.46121 -85.90553 85.90552 -85.90553l0 0c22.783562 0 44.633965 9.050735 60.74436 25.161148c16.110413 16.110413 25.161148 37.960815 25.161148 60.744385l0 0c0 47.444305 -38.461212 85.90549 -85.90551 85.90549l0 0c-47.444305 0 -85.90552 -38.46118 -85.90552 -85.90549z" fill-rule="evenodd"/><path fill="#95362d" d="m286.22937 305.77167l0 0c0 -47.444305 38.461212 -85.90553 85.90552 -85.90553l0 0c22.783539 0 44.63394 9.050735 60.744354 25.161148c16.110413 16.110413 25.161163 37.960815 25.161163 60.744385l0 0c0 47.444305 -38.461212 85.90549 -85.90552 85.90549l0 0c-47.444305 0 -85.90552 -38.46118 -85.90552 -85.90549z" fill-rule="evenodd"/><path stroke="#c22d29" stroke-width="4.0" stroke-linejoin="round" stroke-linecap="butt" d="m286.22937 305.77167l0 0c0 -47.444305 38.461212 -85.90553 85.90552 -85.90553l0 0c22.783539 0 44.63394 9.050735 60.744354 25.161148c16.110413 16.110413 25.161163 37.960815 25.161163 60.744385l0 0c0 47.444305 -38.461212 85.90549 -85.90552 85.90549l0 0c-47.444305 0 -85.90552 -38.46118 -85.90552 -85.90549z" fill-rule="evenodd"/><path fill="#000000" fill-opacity="0.0" d="m30.6795 284.7638l171.81102 0l0 42.015747l-171.81102 0z" fill-rule="evenodd"/><path fill="#ffffff" d="m46.921062 312.49167l0 -13.0625l5.9375 0q2.125 0 3.75 0.8125q1.625 0.8125 2.53125 2.265625q0.921875 1.453125 0.921875 3.453125q0 1.984375 -0.921875 3.453125q-0.90625 1.453125 -2.53125 2.265625q-1.625 0.8125 -3.75 0.8125l-5.9375 0zm3.03125 -2.484375l2.75 0q1.3125 0 2.265625 -0.484375q0.96875 -0.5 1.5 -1.40625q0.53125 -0.921875 0.53125 -2.15625q0 -1.25 -0.53125 -2.15625q-0.53125 -0.90625 -1.5 -1.390625q-0.953125 -0.5 -2.265625 -0.5l-2.75 0l0 8.09375zm16.956936 2.640625q-1.609375 0 -2.859375 -0.671875q-1.2343712 -0.671875 -1.9531212 -1.84375q-0.71875 -1.171875 -0.71875 -2.65625q0 -1.515625 0.71875 -2.671875q0.71875 -1.171875 1.9531212 -1.828125q1.25 -0.671875 2.859375 -0.671875q1.578125 0 2.828125 0.671875q1.25 0.65625 1.953125 1.8125q0.71875 1.15625 0.71875 2.6875q0 1.484375 -0.71875 2.65625q-0.703125 1.171875 -1.953125 1.84375q-1.25 0.671875 -2.828125 0.671875zm0 -2.390625q0.71875 0 1.296875 -0.328125q0.578125 -0.34375 0.90625 -0.96875q0.34375 -0.625 0.34375 -1.484375q0 -0.875 -0.34375 -1.484375q-0.328125 -0.625 -0.90625 -0.953125q-0.578125 -0.34375 -1.296875 -0.34375q-0.734375 0 -1.3125 0.34375q-0.578125 0.328125 -0.921875 0.953125q-0.34375 0.609375 -0.34375 1.484375q0 0.859375 0.34375 1.484375q0.34375 0.625 0.921875 0.96875q0.578125 0.328125 1.3125 0.328125zm9.455475 2.234375l-3.625 -10.03125l2.75 0l3.0 8.625l-1.3125 0l3.140625 -8.625l2.46875 0l3.03125 8.625l-1.296875 0l3.09375 -8.625l2.578125 0l-3.640625 10.03125l-2.828125 0l-2.65625 -7.40625l0.859375 0l-2.765625 7.40625l-2.796875 0zm21.277786 -10.1875q1.203125 0 2.140625 0.484375q0.9375 0.46875 1.484375 1.453125q0.546875 0.96875 0.546875 2.5l0 5.75l-2.921875 0l0 -5.296875q0 -1.21875 -0.53125 -1.796875q-0.53125 -0.578125 -1.5 -0.578125q-0.6875 0 -1.234375 0.296875q-0.546875 0.28125 -0.859375 0.890625q-0.3125 0.59375 -0.3125 1.515625l0 4.96875l-2.90625 0l0 -10.03125l2.78125 0l0 2.78125l-0.53125 -0.84375q0.546875 -1.015625 1.546875 -1.546875q1.015625 -0.546875 2.296875 -0.546875zm6.797714 10.1875l0 -13.84375l2.90625 0l0 13.84375l-2.90625 0zm10.39679 0.15625q-1.609375 0 -2.859375 -0.671875q-1.234375 -0.671875 -1.953125 -1.84375q-0.71875 -1.171875 -0.71875 -2.65625q0 -1.515625 0.71875 -2.671875q0.71875 -1.171875 1.953125 -1.828125q1.25 -0.671875 2.859375 -0.671875q1.578125 0 2.828125 0.671875q1.25 0.65625 1.953125 1.8125q0.71875 1.15625 0.71875 2.6875q0 1.484375 -0.71875 2.65625q-0.703125 1.171875 -1.953125 1.84375q-1.25 0.671875 -2.828125 0.671875zm0 -2.390625q0.71875 0 1.296875 -0.328125q0.578125 -0.34375 0.90625 -0.96875q0.34375 -0.625 0.34375 -1.484375q0 -0.875 -0.34375 -1.484375q-0.328125 -0.625 -0.90625 -0.953125q-0.578125 -0.34375 -1.296875 -0.34375q-0.734375 0 -1.3125 0.34375q-0.578125 0.328125 -0.921875 0.953125q-0.34375 0.609375 -0.34375 1.484375q0 0.859375 0.34375 1.484375q0.34375 0.625 0.921875 0.96875q0.578125 0.328125 1.3125 0.328125zm13.426857 2.234375l0 -1.953125l-0.1875 -0.4375l0 -3.5q0 -0.9375 -0.5781326 -1.453125q-0.5625 -0.53125 -1.734375 -0.53125q-0.796875 0 -1.578125 0.25q-0.765625 0.25 -1.3125 0.6875l-1.046875 -2.03125q0.828125 -0.578125 1.984375 -0.890625q1.15625 -0.328125 2.34375 -0.328125q2.2968826 0 3.5625076 1.09375q1.265625 1.078125 1.265625 3.359375l0 5.734375l-2.71875 0zm-3.0625076 0.15625q-1.171875 0 -2.015625 -0.40625q-0.84375 -0.40625 -1.296875 -1.09375q-0.4375 -0.6875 -0.4375 -1.546875q0 -0.890625 0.4375 -1.5625q0.4375 -0.671875 1.390625 -1.046875q0.953125 -0.390625 2.484375 -0.390625l2.6718826 0l0 1.6875l-2.3593826 0q-1.015625 0 -1.40625 0.34375q-0.375 0.328125 -0.375 0.84375q0 0.546875 0.4375 0.875q0.4375 0.328125 1.203125 0.328125q0.71875 0 1.296875 -0.34375q0.578125 -0.34375 0.8437576 -1.015625l0.453125 1.34375q-0.328125 0.96875 -1.1718826 1.484375q-0.828125 0.5 -2.15625 0.5zm12.804329 0q-1.421875 0 -2.5625 -0.640625q-1.140625 -0.65625 -1.796875 -1.8125q-0.65625 -1.15625 -0.65625 -2.71875q0 -1.59375 0.65625 -2.75q0.65625 -1.15625 1.796875 -1.78125q1.140625 -0.640625 2.5625 -0.640625q1.265625 0 2.21875 0.5625q0.953125 0.5625 1.46875 1.703125q0.53125 1.125 0.53125 2.90625q0 1.75 -0.515625 2.90625q-0.5 1.140625 -1.4375 1.703125q-0.9375 0.5625 -2.265625 0.5625zm0.5 -2.390625q0.703125 0 1.28125 -0.328125q0.578125 -0.34375 0.921875 -0.96875q0.359375 -0.625 0.359375 -1.484375q0 -0.875 -0.359375 -1.484375q-0.34375 -0.625 -0.921875 -0.953125q-0.578125 -0.34375 -1.28125 -0.34375q-0.734375 0 -1.3125 0.34375q-0.578125 0.328125 -0.921875 0.953125q-0.34375 0.609375 -0.34375 1.484375q0 0.859375 0.34375 1.484375q0.34375 0.625 0.921875 0.96875q0.578125 0.328125 1.3125 0.328125zm2.625 2.234375l0 -2.046875l0.0625 -2.984375l-0.1875 -2.96875l0 -5.84375l2.90625 0l0 13.84375l-2.78125 0zm16.9086 0l0 -1.953125l-0.1875 -0.4375l0 -3.5q0 -0.9375 -0.578125 -1.453125q-0.5625 -0.53125 -1.734375 -0.53125q-0.796875 0 -1.578125 0.25q-0.765625 0.25 -1.3125 0.6875l-1.046875 -2.03125q0.828125 -0.578125 1.984375 -0.890625q1.15625 -0.328125 2.34375 -0.328125q2.296875 0 3.5625 1.09375q1.265625 1.078125 1.265625 3.359375l0 5.734375l-2.71875 0zm-3.0625 0.15625q-1.171875 0 -2.015625 -0.40625q-0.84375 -0.40625 -1.296875 -1.09375q-0.4375 -0.6875 -0.4375 -1.546875q0 -0.890625 0.4375 -1.5625q0.4375 -0.671875 1.390625 -1.046875q0.953125 -0.390625 2.484375 -0.390625l2.671875 0l0 1.6875l-2.359375 0q-1.015625 0 -1.40625 0.34375q-0.375 0.328125 -0.375 0.84375q0 0.546875 0.4375 0.875q0.4375 0.328125 1.203125 0.328125q0.71875 0 1.296875 -0.34375q0.578125 -0.34375 0.84375 -1.015625l0.453125 1.34375q-0.328125 0.96875 -1.171875 1.484375q-0.828125 0.5 -2.15625 0.5zm14.35466 0q-1.28125 0 -2.234375 -0.5625q-0.9375 -0.5625 -1.46875 -1.703125q-0.53125 -1.15625 -0.53125 -2.90625q0 -1.78125 0.5 -2.90625q0.5 -1.140625 1.453125 -1.703125q0.953125 -0.5625 2.28125 -0.5625q1.40625 0 2.53125 0.640625q1.140625 0.640625 1.796875 1.8125q0.671875 1.15625 0.671875 2.71875q0 1.578125 -0.671875 2.734375q-0.65625 1.15625 -1.796875 1.796875q-1.125 0.640625 -2.53125 0.640625zm-5.9375 3.46875l0 -13.65625l2.78125 0l0 2.046875l-0.0625 2.984375l0.1875 2.96875l0 5.65625l-2.90625 0zm5.421875 -5.859375q0.734375 0 1.296875 -0.328125q0.578125 -0.34375 0.921875 -0.96875q0.34375 -0.625 0.34375 -1.484375q0 -0.875 -0.34375 -1.484375q-0.34375 -0.625 -0.921875 -0.953125q-0.5625 -0.34375 -1.296875 -0.34375q-0.71875 0 -1.296875 0.34375q-0.578125 0.328125 -0.921875 0.953125q-0.328125 0.609375 -0.328125 1.484375q0 0.859375 0.328125 1.484375q0.34375 0.625 0.921875 0.96875q0.578125 0.328125 1.296875 0.328125zm13.388443 2.390625q-1.28125 0 -2.234375 -0.5625q-0.9375 -0.5625 -1.46875 -1.703125q-0.53125 -1.15625 -0.53125 -2.90625q0 -1.78125 0.5 -2.90625q0.5 -1.140625 1.453125 -1.703125q0.953125 -0.5625 2.28125 -0.5625q1.40625 0 2.53125 0.640625q1.140625 0.640625 1.796875 1.8125q0.671875 1.15625 0.671875 2.71875q0 1.578125 -0.671875 2.734375q-0.65625 1.15625 -1.796875 1.796875q-1.125 0.640625 -2.53125 0.640625zm-5.9375 3.46875l0 -13.65625l2.78125 0l0 2.046875l-0.0625 2.984375l0.1875 2.96875l0 5.65625l-2.90625 0zm5.421875 -5.859375q0.734375 0 1.296875 -0.328125q0.578125 -0.34375 0.921875 -0.96875q0.34375 -0.625 0.34375 -1.484375q0 -0.875 -0.34375 -1.484375q-0.34375 -0.625 -0.921875 -0.953125q-0.5625 -0.34375 -1.296875 -0.34375q-0.71875 0 -1.296875 0.34375q-0.578125 0.328125 -0.921875 0.953125q-0.328125 0.609375 -0.328125 1.484375q0 0.859375 0.328125 1.484375q0.34375 0.625 0.921875 0.96875q0.578125 0.328125 1.296875 0.328125z" fill-rule="nonzero"/><path fill="#000000" fill-opacity="0.0" d="m291.34747 284.7638l161.5748 0l0 42.015747l-161.5748 0z" fill-rule="evenodd"/><path fill="#ffffff" d="m340.7594 312.71042q-1.578125 0 -3.015625 -0.40625q-1.421875 -0.421875 -2.3125 -1.09375l1.03125 -2.28125q0.84375 0.59375 1.984375 0.984375q1.15625 0.375 2.328125 0.375q0.890625 0 1.4375 -0.171875q0.5625 -0.1875 0.8125 -0.5q0.265625 -0.3125 0.265625 -0.71875q0 -0.53125 -0.40625 -0.828125q-0.40625 -0.3125 -1.078125 -0.5q-0.671875 -0.203125 -1.484375 -0.375q-0.8125 -0.1875 -1.625 -0.4375q-0.8125 -0.265625 -1.484375 -0.671875q-0.671875 -0.421875 -1.09375 -1.09375q-0.421875 -0.671875 -0.421875 -1.71875q0 -1.109375 0.609375 -2.03125q0.609375 -0.9375 1.828125 -1.484375q1.21875 -0.546875 3.0625 -0.546875q1.234375 0 2.421875 0.296875q1.203125 0.28125 2.125 0.859375l-0.9375 2.296875q-0.921875 -0.53125 -1.84375 -0.78125q-0.90625 -0.25 -1.78125 -0.25q-0.875 0 -1.4375 0.203125q-0.5625 0.203125 -0.8125 0.53125q-0.234375 0.328125 -0.234375 0.765625q0 0.5 0.40625 0.8125q0.421875 0.296875 1.09375 0.484375q0.671875 0.1875 1.484375 0.375q0.8125 0.1875 1.625 0.4375q0.8125 0.234375 1.484375 0.65625q0.671875 0.40625 1.078125 1.078125q0.421875 0.671875 0.421875 1.6875q0 1.109375 -0.609375 2.03125q-0.609375 0.90625 -1.84375 1.46875q-1.21875 0.546875 -3.078125 0.546875zm7.4026794 -0.21875l0 -10.03125l2.90625 0l0 10.03125l-2.90625 0zm1.453125 -11.4375q-0.796875 0 -1.3125 -0.46875q-0.5 -0.46875 -0.5 -1.15625q0 -0.6875 0.5 -1.15625q0.515625 -0.46875 1.3125 -0.46875q0.8125 0 1.3125 0.4375q0.5 0.4375 0.5 1.140625q0 0.71875 -0.5 1.203125q-0.484375 0.46875 -1.3125 0.46875zm8.881165 15.203125q-1.421875 0 -2.734375 -0.34375q-1.3125 -0.34375 -2.1875 -1.03125l1.15625 -2.09375q0.625 0.53125 1.609375 0.828125q0.984375 0.3125 1.9375 0.3125q1.546875 0 2.234375 -0.6875q0.703125 -0.6875 0.703125 -2.0625l0 -1.5l0.1875 -2.515625l-0.03125 -2.546875l0 -2.15625l2.765625 0l0 8.359375q0 2.796875 -1.46875 4.109375q-1.453125 1.328125 -4.171875 1.328125zm-0.453125 -4.25q-1.390625 0 -2.53125 -0.609375q-1.125 -0.609375 -1.8125 -1.6875q-0.671875 -1.09375 -0.671875 -2.546875q0 -1.484375 0.671875 -2.578125q0.6875 -1.09375 1.8125 -1.6875q1.140625 -0.59375 2.53125 -0.59375q1.28125 0 2.25 0.515625q0.96875 0.515625 1.5 1.59375q0.546875 1.0625 0.546875 2.75q0 1.65625 -0.546875 2.734375q-0.53125 1.0625 -1.5 1.59375q-0.96875 0.515625 -2.25 0.515625zm0.578125 -2.390625q0.765625 0 1.359375 -0.296875q0.609375 -0.3125 0.9375 -0.875q0.34375 -0.5625 0.34375 -1.28125q0 -0.75 -0.34375 -1.296875q-0.328125 -0.5625 -0.9375 -0.859375q-0.59375 -0.3125 -1.359375 -0.3125q-0.765625 0 -1.359375 0.3125q-0.59375 0.296875 -0.9375 0.859375q-0.34375 0.546875 -0.34375 1.296875q0 0.71875 0.34375 1.28125q0.34375 0.5625 0.9375 0.875q0.59375 0.296875 1.359375 0.296875zm14.309387 -7.3125q1.203125 0 2.140625 0.484375q0.9375 0.46875 1.484375 1.453125q0.546875 0.96875 0.546875 2.5l0 5.75l-2.921875 0l0 -5.296875q0 -1.21875 -0.53125 -1.796875q-0.53125 -0.578125 -1.5 -0.578125q-0.6875 0 -1.234375 0.296875q-0.546875 0.28125 -0.859375 0.890625q-0.3125 0.59375 -0.3125 1.515625l0 4.96875l-2.90625 0l0 -10.03125l2.78125 0l0 2.78125l-0.53125 -0.84375q0.546875 -1.015625 1.546875 -1.546875q1.015625 -0.546875 2.296875 -0.546875zm16.311798 10.34375q-1.25 0 -2.234375 -0.484375q-0.96875 -0.5 -1.515625 -1.484375q-0.546875 -1.0 -0.546875 -2.546875l0 -5.671875l2.921875 0l0 5.234375q0 1.25 0.53125 1.84375q0.53125 0.578125 1.5 0.578125q0.671875 0 1.1875 -0.28125q0.53125 -0.296875 0.828125 -0.890625q0.296875 -0.609375 0.296875 -1.53125l0 -4.953125l2.90625 0l0 10.03125l-2.765625 0l0 -2.765625l0.515625 0.8125q-0.515625 1.03125 -1.5 1.578125q-0.96875 0.53125 -2.125 0.53125zm14.519989 0q-1.28125 0 -2.234375 -0.5625q-0.9375 -0.5625 -1.46875 -1.703125q-0.53125 -1.15625 -0.53125 -2.90625q0 -1.78125 0.5 -2.90625q0.5 -1.140625 1.453125 -1.703125q0.953125 -0.5625 2.28125 -0.5625q1.40625 0 2.53125 0.640625q1.140625 0.640625 1.796875 1.8125q0.671875 1.15625 0.671875 2.71875q0 1.578125 -0.671875 2.734375q-0.65625 1.15625 -1.796875 1.796875q-1.125 0.640625 -2.53125 0.640625zm-5.9375 3.46875l0 -13.65625l2.78125 0l0 2.046875l-0.0625 2.984375l0.1875 2.96875l0 5.65625l-2.90625 0zm5.421875 -5.859375q0.734375 0 1.296875 -0.328125q0.578125 -0.34375 0.921875 -0.96875q0.34375 -0.625 0.34375 -1.484375q0 -0.875 -0.34375 -1.484375q-0.34375 -0.625 -0.921875 -0.953125q-0.5625 -0.34375 -1.296875 -0.34375q-0.71875 0 -1.296875 0.34375q-0.578125 0.328125 -0.921875 0.953125q-0.328125 0.609375 -0.328125 1.484375q0 0.859375 0.328125 1.484375q0.34375 0.625 0.921875 0.96875q0.578125 0.328125 1.296875 0.328125z" fill-rule="nonzero"/><path fill="#95362d" d="m541.78186 305.77167l0 0c0 -47.444305 38.46118 -85.90553 85.90552 -85.90553l0 0c22.78357 0 44.633972 9.050735 60.744385 25.161148c16.110413 16.110413 25.161133 37.960815 25.161133 60.744385l0 0c0 47.444305 -38.461243 85.90549 -85.90552 85.90549l0 0c-47.444336 0 -85.90552 -38.46118 -85.90552 -85.90549z" fill-rule="evenodd"/><path stroke="#c22d29" stroke-width="4.0" stroke-linejoin="round" stroke-linecap="butt" d="m541.78186 305.77167l0 0c0 -47.444305 38.46118 -85.90553 85.90552 -85.90553l0 0c22.78357 0 44.633972 9.050735 60.744385 25.161148c16.110413 16.110413 25.161133 37.960815 25.161133 60.744385l0 0c0 47.444305 -38.461243 85.90549 -85.90552 85.90549l0 0c-47.444336 0 -85.90552 -38.46118 -85.90552 -85.90549z" fill-rule="evenodd"/><path fill="#000000" fill-opacity="0.0" d="m546.89996 284.7638l161.57483 0l0 42.015747l-161.57483 0z" fill-rule="evenodd"/><path fill="#ffffff" d="m566.1277 312.49167l0 -10.59375l-4.171875 0l0 -2.46875l11.375 0l0 2.46875l-4.171875 0l0 10.59375l-3.03125 0zm14.275574 0l0 -1.953125l-0.1875 -0.4375l0 -3.5q0 -0.9375 -0.578125 -1.453125q-0.5625 -0.53125 -1.734375 -0.53125q-0.796875 0 -1.578125 0.25q-0.765625 0.25 -1.3125 0.6875l-1.046875 -2.03125q0.828125 -0.578125 1.984375 -0.890625q1.15625 -0.328125 2.34375 -0.328125q2.296875 0 3.5625 1.09375q1.265625 1.078125 1.265625 3.359375l0 5.734375l-2.71875 0zm-3.0625 0.15625q-1.171875 0 -2.015625 -0.40625q-0.84375 -0.40625 -1.296875 -1.09375q-0.4375 -0.6875 -0.4375 -1.546875q0 -0.890625 0.4375 -1.5625q0.4375 -0.671875 1.390625 -1.046875q0.953125 -0.390625 2.484375 -0.390625l2.671875 0l0 1.6875l-2.359375 0q-1.015625 0 -1.40625 0.34375q-0.375 0.328125 -0.375 0.84375q0 0.546875 0.4375 0.875q0.4375 0.328125 1.203125 0.328125q0.71875 0 1.296875 -0.34375q0.578125 -0.34375 0.84375 -1.015625l0.453125 1.34375q-0.328125 0.96875 -1.171875 1.484375q-0.828125 0.5 -2.15625 0.5zm10.823425 -2.203125l0.078125 -3.546875l4.671875 -4.4375l3.484375 0l-4.5 4.5625l-1.515625 1.234375l-2.21875 2.1875zm-2.40625 2.046875l0 -13.84375l2.90625 0l0 13.84375l-2.90625 0zm7.484375 0l-3.40625 -4.21875l1.828125 -2.25l5.09375 6.46875l-3.515625 0zm9.383789 0.15625q-1.71875 0 -3.015625 -0.671875q-1.296875 -0.671875 -2.015625 -1.84375q-0.703125 -1.171875 -0.703125 -2.65625q0 -1.515625 0.703125 -2.671875q0.703125 -1.171875 1.90625 -1.828125q1.21875 -0.671875 2.75 -0.671875q1.46875 0 2.65625 0.625q1.1875 0.625 1.875 1.796875q0.6875 1.15625 0.6875 2.78125q0 0.171875 -0.015625 0.390625q-0.015625 0.203125 -0.03125 0.390625l-8.15625 0l0 -1.6875l6.625 0l-1.125 0.5q0 -0.78125 -0.328125 -1.359375q-0.3125 -0.578125 -0.875 -0.90625q-0.546875 -0.328125 -1.296875 -0.328125q-0.75 0 -1.328125 0.328125q-0.5625 0.328125 -0.875 0.921875q-0.3125 0.578125 -0.3125 1.375l0 0.453125q0 0.828125 0.359375 1.453125q0.359375 0.625 1.015625 0.953125q0.671875 0.3125 1.578125 0.3125q0.796875 0 1.390625 -0.234375q0.609375 -0.25 1.125 -0.734375l1.546875 1.6875q-0.6875 0.78125 -1.734375 1.203125q-1.046875 0.421875 -2.40625 0.421875zm18.004944 0q-1.28125 0 -2.234375 -0.5625q-0.9375 -0.5625 -1.46875 -1.703125q-0.53125 -1.15625 -0.53125 -2.90625q0 -1.78125 0.5 -2.90625q0.5 -1.140625 1.453125 -1.703125q0.953125 -0.5625 2.28125 -0.5625q1.40625 0 2.53125 0.640625q1.140625 0.640625 1.796875 1.8125q0.671875 1.15625 0.671875 2.71875q0 1.578125 -0.671875 2.734375q-0.65625 1.15625 -1.796875 1.796875q-1.125 0.640625 -2.53125 0.640625zm-5.9375 3.46875l0 -13.65625l2.78125 0l0 2.046875l-0.0625 2.984375l0.1875 2.96875l0 5.65625l-2.90625 0zm5.421875 -5.859375q0.734375 0 1.296875 -0.328125q0.578125 -0.34375 0.921875 -0.96875q0.34375 -0.625 0.34375 -1.484375q0 -0.875 -0.34375 -1.484375q-0.34375 -0.625 -0.921875 -0.953125q-0.5625 -0.34375 -1.296875 -0.34375q-0.71875 0 -1.296875 0.34375q-0.578125 0.328125 -0.921875 0.953125q-0.328125 0.609375 -0.328125 1.484375q0 0.859375 0.328125 1.484375q0.34375 0.625 0.921875 0.96875q0.578125 0.328125 1.296875 0.328125zm7.4509277 2.234375l0 -10.03125l2.90625 0l0 10.03125l-2.90625 0zm1.453125 -11.4375q-0.796875 0 -1.3125 -0.46875q-0.5 -0.46875 -0.5 -1.15625q0 -0.6875 0.5 -1.15625q0.515625 -0.46875 1.3125 -0.46875q0.8125 0 1.3125 0.4375q0.5 0.4375 0.5 1.140625q0 0.71875 -0.5 1.203125q-0.484375 0.46875 -1.3125 0.46875zm9.006165 11.59375q-1.609375 0 -2.890625 -0.65625q-1.265625 -0.671875 -1.984375 -1.84375q-0.71875 -1.1875 -0.71875 -2.671875q0 -1.515625 0.71875 -2.671875q0.71875 -1.171875 1.984375 -1.828125q1.28125 -0.671875 2.890625 -0.671875q1.59375 0 2.765625 0.671875q1.171875 0.65625 1.734375 1.890625l-2.25 1.203125q-0.390625 -0.703125 -0.984375 -1.03125q-0.59375 -0.34375 -1.28125 -0.34375q-0.75 0 -1.34375 0.34375q-0.59375 0.328125 -0.9375 0.953125q-0.34375 0.609375 -0.34375 1.484375q0 0.875 0.34375 1.5q0.34375 0.609375 0.9375 0.953125q0.59375 0.328125 1.34375 0.328125q0.6875 0 1.28125 -0.328125q0.59375 -0.328125 0.984375 -1.0625l2.25 1.234375q-0.5625 1.21875 -1.734375 1.890625q-1.171875 0.65625 -2.765625 0.65625zm10.440796 0q-1.78125 0 -2.765625 -0.90625q-0.984375 -0.90625 -0.984375 -2.703125l0 -8.796875l2.90625 0l0 8.765625q0 0.625 0.328125 0.96875q0.34375 0.34375 0.921875 0.34375q0.6875 0 1.171875 -0.359375l0.78125 2.046875q-0.4375 0.3125 -1.0625 0.484375q-0.625 0.15625 -1.296875 0.15625zm-5.296875 -7.734375l0 -2.234375l6.953125 0l0 2.234375l-6.953125 0zm13.5373535 7.734375q-1.25 0 -2.234375 -0.484375q-0.96875 -0.5 -1.515625 -1.484375q-0.546875 -1.0 -0.546875 -2.546875l0 -5.671875l2.921875 0l0 5.234375q0 1.25 0.53125 1.84375q0.53125 0.578125 1.5 0.578125q0.671875 0 1.1875 -0.28125q0.53125 -0.296875 0.828125 -0.890625q0.296875 -0.609375 0.296875 -1.53125l0 -4.953125l2.90625 0l0 10.03125l-2.765625 0l0 -2.765625l0.515625 0.8125q-0.515625 1.03125 -1.5 1.578125q-0.96875 0.53125 -2.125 0.53125zm8.5824585 -0.15625l0 -10.03125l2.78125 0l0 2.828125l-0.390625 -0.8125q0.4375 -1.0625 1.421875 -1.609375q1.0 -0.5625 2.421875 -0.5625l0 2.6875q-0.1875 -0.015625 -0.34375 -0.015625q-0.140625 -0.015625 -0.3125 -0.015625q-1.1875 0 -1.9375 0.6875q-0.734375 0.671875 -0.734375 2.109375l0 4.734375l-2.90625 0zm12.857239 0.15625q-1.71875 0 -3.015625 -0.671875q-1.296875 -0.671875 -2.015625 -1.84375q-0.703125 -1.171875 -0.703125 -2.65625q0 -1.515625 0.703125 -2.671875q0.703125 -1.171875 1.90625 -1.828125q1.21875 -0.671875 2.75 -0.671875q1.46875 0 2.65625 0.625q1.1875 0.625 1.875 1.796875q0.6875 1.15625 0.6875 2.78125q0 0.171875 -0.015625 0.390625q-0.015625 0.203125 -0.03125 0.390625l-8.15625 0l0 -1.6875l6.625 0l-1.125 0.5q0 -0.78125 -0.328125 -1.359375q-0.3125 -0.578125 -0.875 -0.90625q-0.546875 -0.328125 -1.296875 -0.328125q-0.75 0 -1.328125 0.328125q-0.5625 0.328125 -0.875 0.921875q-0.3125 0.578125 -0.3125 1.375l0 0.453125q0 0.828125 0.359375 1.453125q0.359375 0.625 1.015625 0.953125q0.671875 0.3125 1.578125 0.3125q0.796875 0 1.390625 -0.234375q0.609375 -0.25 1.125 -0.734375l1.546875 1.6875q-0.6875 0.78125 -1.734375 1.203125q-1.046875 0.421875 -2.40625 0.421875zm10.16272 0q-1.28125 0 -2.46875 -0.3125q-1.1875 -0.3125 -1.875 -0.78125l0.96875 -2.078125q0.6875 0.421875 1.625 0.703125q0.953125 0.265625 1.859375 0.265625q1.015625 0 1.421875 -0.234375q0.421875 -0.25 0.421875 -0.6875q0 -0.359375 -0.328125 -0.53125q-0.3125 -0.171875 -0.859375 -0.265625q-0.546875 -0.09375 -1.1875 -0.1875q-0.640625 -0.09375 -1.296875 -0.25q-0.65625 -0.15625 -1.203125 -0.46875q-0.53125 -0.328125 -0.859375 -0.859375q-0.328125 -0.546875 -0.328125 -1.40625q0 -0.953125 0.546875 -1.671875q0.5625 -0.734375 1.609375 -1.15625q1.046875 -0.421875 2.5 -0.421875q1.015625 0 2.078125 0.234375q1.0625 0.21875 1.78125 0.640625l-0.96875 2.078125q-0.734375 -0.4375 -1.46875 -0.59375q-0.734375 -0.15625 -1.421875 -0.15625q-0.96875 0 -1.421875 0.265625q-0.453125 0.25 -0.453125 0.671875q0 0.375 0.328125 0.5625q0.328125 0.171875 0.859375 0.296875q0.546875 0.109375 1.1875 0.203125q0.65625 0.078125 1.296875 0.25q0.65625 0.15625 1.1875 0.46875q0.53125 0.296875 0.859375 0.828125q0.34375 0.53125 0.34375 1.390625q0 0.9375 -0.5625 1.65625q-0.546875 0.71875 -1.609375 1.140625q-1.046875 0.40625 -2.5625 0.40625z" fill-rule="nonzero"/><path fill="#000000" fill-opacity="0.0" d="m30.67979 418.08136l938.45667 0l0 42.015747l-938.45667 0z" fill-rule="evenodd"/><path fill="#000000" d="m444.20572 446.02798q-1.546875 0 -2.84375 -0.484375q-1.296875 -0.5 -2.265625 -1.40625q-0.953125 -0.921875 -1.484375 -2.15625q-0.53125 -1.234375 -0.53125 -2.703125q0 -1.46875 0.53125 -2.703125q0.53125 -1.234375 1.5 -2.140625q0.96875 -0.921875 2.265625 -1.40625q1.3125 -0.5 2.875 -0.5q1.734375 0 3.125 0.578125q1.390625 0.578125 2.34375 1.671875l-1.9375 1.796875q-0.703125 -0.75 -1.546875 -1.109375q-0.84375 -0.359375 -1.828125 -0.359375q-0.953125 0 -1.734375 0.296875q-0.78125 0.296875 -1.359375 0.859375q-0.5625 0.546875 -0.875 1.3125q-0.3125 0.765625 -0.3125 1.703125q0 0.921875 0.3125 1.6875q0.3125 0.765625 0.875 1.328125q0.578125 0.5625 1.34375 0.875q0.78125 0.296875 1.703125 0.296875q0.90625 0 1.75 -0.28125q0.84375 -0.296875 1.65625 -1.0l1.71875 2.1875q-1.0625 0.796875 -2.484375 1.234375q-1.40625 0.421875 -2.796875 0.421875zm2.515625 -2.046875l0 -4.90625l2.765625 0l0 5.296875l-2.765625 -0.390625zm8.337097 -5.96875l6.28125 0l0 2.34375l-6.28125 0l0 -2.34375zm0.21875 5.375l7.109375 0l0 2.421875l-10.109375 0l0 -13.0625l9.875 0l0 2.421875l-6.875 0l0 8.21875zm12.221466 2.421875l0 -10.59375l-4.171875 0l0 -2.46875l11.375 0l0 2.46875l-4.171875 0l0 10.59375l-3.03125 0zm20.35617 0.21875q-1.515625 0 -2.8125 -0.484375q-1.296875 -0.5 -2.25 -1.40625q-0.9375 -0.921875 -1.46875 -2.15625q-0.53125 -1.234375 -0.53125 -2.703125q0 -1.46875 0.53125 -2.703125q0.53125 -1.234375 1.484375 -2.140625q0.96875 -0.921875 2.25 -1.40625q1.28125 -0.5 2.8125 -0.5q1.703125 0 3.0625 0.59375q1.375 0.578125 2.3125 1.71875l-1.9375 1.796875q-0.671875 -0.765625 -1.5 -1.140625q-0.8125 -0.390625 -1.78125 -0.390625q-0.921875 0 -1.6875 0.296875q-0.765625 0.296875 -1.328125 0.859375q-0.546875 0.546875 -0.859375 1.3125q-0.3125 0.765625 -0.3125 1.703125q0 0.9375 0.3125 1.703125q0.3125 0.765625 0.859375 1.328125q0.5625 0.546875 1.328125 0.859375q0.765625 0.296875 1.6875 0.296875q0.96875 0 1.78125 -0.375q0.828125 -0.390625 1.5 -1.1875l1.9375 1.796875q-0.9375 1.140625 -2.3125 1.734375q-1.359375 0.59375 -3.078125 0.59375zm13.48877 0q-1.546875 0 -2.859375 -0.5q-1.3125 -0.5 -2.28125 -1.40625q-0.953125 -0.921875 -1.484375 -2.15625q-0.53125 -1.234375 -0.53125 -2.6875q0 -1.453125 0.53125 -2.6875q0.53125 -1.234375 1.5 -2.140625q0.96875 -0.921875 2.265625 -1.421875q1.3125 -0.5 2.84375 -0.5q1.546875 0 2.84375 0.5q1.296875 0.5 2.25 1.421875q0.96875 0.90625 1.5 2.140625q0.546875 1.21875 0.546875 2.6875q0 1.453125 -0.546875 2.703125q-0.53125 1.234375 -1.5 2.140625q-0.953125 0.90625 -2.25 1.40625q-1.296875 0.5 -2.828125 0.5zm-0.015625 -2.5625q0.875 0 1.609375 -0.296875q0.734375 -0.3125 1.296875 -0.859375q0.5625 -0.5625 0.859375 -1.328125q0.3125 -0.765625 0.3125 -1.703125q0 -0.9375 -0.3125 -1.703125q-0.296875 -0.765625 -0.84375 -1.3125q-0.546875 -0.5625 -1.296875 -0.859375q-0.75 -0.296875 -1.625 -0.296875q-0.875 0 -1.625 0.296875q-0.734375 0.296875 -1.296875 0.859375q-0.546875 0.546875 -0.859375 1.3125q-0.3125 0.765625 -0.3125 1.703125q0 0.921875 0.3125 1.703125q0.3125 0.765625 0.859375 1.328125q0.546875 0.546875 1.296875 0.859375q0.75 0.296875 1.625 0.296875zm12.214691 -4.84375l6.265625 0l0 2.4375l-6.265625 0l0 -2.4375zm0.234375 7.1875l-3.0312805 0l0 -13.0625l9.8750305 0l0 2.421875l-6.84375 0l0 10.640625zm11.686951 -7.1875l6.265625 0l0 2.4375l-6.265625 0l0 -2.4375zm0.234375 7.1875l-3.03125 0l0 -13.0625l9.875 0l0 2.421875l-6.84375 0l0 10.640625zm11.671326 -7.796875l6.28125 0l0 2.34375l-6.28125 0l0 -2.34375zm0.21875 5.375l7.109375 0l0 2.421875l-10.109375 0l0 -13.0625l9.875 0l0 2.421875l-6.875 0l0 8.21875zm12.299622 -5.375l6.28125 0l0 2.34375l-6.28125 0l0 -2.34375zm0.21875 5.375l7.109375 0l0 2.421875l-10.109375 0l0 -13.0625l9.875 0l0 2.421875l-6.875 0l0 8.21875zm9.518311 -2.109375l-0.578125 -8.53125l3.46875 0l-0.578125 8.53125l-2.3125 0zm1.15625 4.6875q-0.78125 0 -1.28125 -0.5q-0.5 -0.515625 -0.5 -1.203125q0 -0.703125 0.5 -1.171875q0.5 -0.484375 1.28125 -0.484375q0.796875 0 1.296875 0.484375q0.5 0.46875 0.5 1.171875q0 0.6875 -0.5 1.203125q-0.5 0.5 -1.296875 0.5z" fill-rule="nonzero"/><path fill="#95362d" d="m797.33594 305.77167l0 0c0 -47.444305 38.461243 -85.90553 85.90552 -85.90553l0 0c22.78357 0 44.633972 9.050735 60.744385 25.161148c16.110413 16.110413 25.161133 37.960815 25.161133 60.744385l0 0c0 47.444305 -38.46118 85.90549 -85.90552 85.90549l0 0c-47.444275 0 -85.90552 -38.46118 -85.90552 -85.90549z" fill-rule="evenodd"/><path stroke="#c22d29" stroke-width="4.0" stroke-linejoin="round" stroke-linecap="butt" d="m797.33594 305.77167l0 0c0 -47.444305 38.461243 -85.90553 85.90552 -85.90553l0 0c22.78357 0 44.633972 9.050735 60.744385 25.161148c16.110413 16.110413 25.161133 37.960815 25.161133 60.744385l0 0c0 47.444305 -38.46118 85.90549 -85.90552 85.90549l0 0c-47.444275 0 -85.90552 -38.46118 -85.90552 -85.90549z" fill-rule="evenodd"/><path fill="#000000" fill-opacity="0.0" d="m797.33594 284.7638l171.81104 0l0 42.015747l-171.81104 0z" fill-rule="evenodd"/><path fill="#ffffff" d="m856.748 312.49167l0 -13.0625l5.65625 0q1.75 0 3.015625 0.578125q1.28125 0.5625 1.96875 1.625q0.6875 1.0625 0.6875 2.53125q0 1.46875 -0.6875 2.53125q-0.6875 1.046875 -1.96875 1.609375q-1.265625 0.546875 -3.015625 0.546875l-3.96875 0l1.34375 -1.328125l0 4.96875l-3.03125 0zm8.296875 0l-3.265625 -4.734375l3.234375 0l3.296875 4.734375l-3.265625 0zm-5.265625 -4.625l-1.34375 -1.421875l3.796875 0q1.40625 0 2.09375 -0.59375q0.6875 -0.609375 0.6875 -1.6875q0 -1.078125 -0.6875 -1.671875q-0.6875 -0.59375 -2.09375 -0.59375l-3.796875 0l1.34375 -1.4375l0 7.40625zm15.462341 4.78125q-1.71875 0 -3.015625 -0.671875q-1.296875 -0.671875 -2.015625 -1.84375q-0.703125 -1.171875 -0.703125 -2.65625q0 -1.515625 0.703125 -2.671875q0.703125 -1.171875 1.90625 -1.828125q1.21875 -0.671875 2.75 -0.671875q1.46875 0 2.65625 0.625q1.1875 0.625 1.875 1.796875q0.6875 1.15625 0.6875 2.78125q0 0.171875 -0.015625 0.390625q-0.015625 0.203125 -0.03125 0.390625l-8.15625 0l0 -1.6875l6.625 0l-1.125 0.5q0 -0.78125 -0.328125 -1.359375q-0.3125 -0.578125 -0.875 -0.90625q-0.546875 -0.328125 -1.296875 -0.328125q-0.75 0 -1.328125 0.328125q-0.5625 0.328125 -0.875 0.921875q-0.3125 0.578125 -0.3125 1.375l0 0.453125q0 0.828125 0.359375 1.453125q0.359375 0.625 1.015625 0.953125q0.671875 0.3125 1.578125 0.3125q0.796875 0 1.390625 -0.234375q0.609375 -0.25 1.125 -0.734375l1.546875 1.6875q-0.6875 0.78125 -1.734375 1.203125q-1.046875 0.421875 -2.40625 0.421875zm12.664001 -0.15625l0 -1.953125l-0.1875 -0.4375l0 -3.5q0 -0.9375 -0.578125 -1.453125q-0.5625 -0.53125 -1.734375 -0.53125q-0.796875 0 -1.578125 0.25q-0.765625 0.25 -1.3125 0.6875l-1.046875 -2.03125q0.828125 -0.578125 1.984375 -0.890625q1.15625 -0.328125 2.34375 -0.328125q2.296875 0 3.5625 1.09375q1.265625 1.078125 1.265625 3.359375l0 5.734375l-2.71875 0zm-3.0625 0.15625q-1.171875 0 -2.015625 -0.40625q-0.84375 -0.40625 -1.296875 -1.09375q-0.4375 -0.6875 -0.4375 -1.546875q0 -0.890625 0.4375 -1.5625q0.4375 -0.671875 1.390625 -1.046875q0.953125 -0.390625 2.484375 -0.390625l2.671875 0l0 1.6875l-2.359375 0q-1.015625 0 -1.40625 0.34375q-0.375 0.328125 -0.375 0.84375q0 0.546875 0.4375 0.875q0.4375 0.328125 1.203125 0.328125q0.71875 0 1.296875 -0.34375q0.578125 -0.34375 0.84375 -1.015625l0.453125 1.34375q-0.328125 0.96875 -1.171875 1.484375q-0.828125 0.5 -2.15625 0.5zm13.335571 0q-1.609375 0 -2.890625 -0.65625q-1.265625 -0.671875 -1.984375 -1.84375q-0.71875 -1.1875 -0.71875 -2.671875q0 -1.515625 0.71875 -2.671875q0.71875 -1.171875 1.984375 -1.828125q1.28125 -0.671875 2.890625 -0.671875q1.59375 0 2.765625 0.671875q1.171875 0.65625 1.734375 1.890625l-2.25 1.203125q-0.390625 -0.703125 -0.984375 -1.03125q-0.59375 -0.34375 -1.28125 -0.34375q-0.75 0 -1.34375 0.34375q-0.59375 0.328125 -0.9375 0.953125q-0.34375 0.609375 -0.34375 1.484375q0 0.875 0.34375 1.5q0.34375 0.609375 0.9375 0.953125q0.59375 0.328125 1.34375 0.328125q0.6875 0 1.28125 -0.328125q0.59375 -0.328125 0.984375 -1.0625l2.25 1.234375q-0.5625 1.21875 -1.734375 1.890625q-1.171875 0.65625 -2.765625 0.65625zm10.440796 0q-1.78125 0 -2.765625 -0.90625q-0.984375 -0.90625 -0.984375 -2.703125l0 -8.796875l2.90625 0l0 8.765625q0 0.625 0.328125 0.96875q0.34375 0.34375 0.921875 0.34375q0.6875 0 1.171875 -0.359375l0.78125 2.046875q-0.4375 0.3125 -1.0625 0.484375q-0.625 0.15625 -1.296875 0.15625zm-5.296875 -7.734375l0 -2.234375l6.953125 0l0 2.234375l-6.953125 0z" fill-rule="nonzero"/></g></svg>