<svg version="1.1" viewBox="0.0 0.0 1024.0 768.0" fill="none" stroke="none" stroke-linecap="square" stroke-miterlimit="10" xmlns:xlink="http://www.w3.org/1999/xlink" xmlns="http://www.w3.org/2000/svg"><clipPath id="p.0"><path d="m0 0l1024.0 0l0 768.0l-1024.0 0l0 -768.0z" clip-rule="nonzero"/></clipPath><g clip-path="url(#p.0)"><path fill="#000000" fill-opacity="0.0" d="m0 0l1024.0 0l0 768.0l-1024.0 0z" fill-rule="evenodd"/><path fill="#000000" fill-opacity="0.0" d="m861.9453 196.6376c0 14.389847 0.01574707 21.586792 0.03149414 28.779709c0.01574707 7.1929016 0.03149414 14.38179 0.03149414 28.763596" fill-rule="evenodd"/><path stroke="#000000" stroke-width="4.0" stroke-linejoin="round" stroke-linecap="butt" d="m861.9453 196.63759c0 14.389862 0.01574707 21.586807 0.03149414 28.779709l0.008850098 4.763626" fill-rule="evenodd"/><path fill="#000000" stroke="#000000" stroke-width="4.0" stroke-linecap="butt" d="m855.37866 230.18715l6.6240845 18.146149l6.5897827 -18.15863z" fill-rule="evenodd"/><path fill="#000000" fill-opacity="0.0" d="m620.6415 196.6376c0 19.744095 0.01574707 29.618118 0.03149414 39.488205c0.01574707 9.870071 0.03149414 19.736206 0.03149414 39.472427" fill-rule="evenodd"/><path stroke="#000000" stroke-width="4.0" stroke-linejoin="round" stroke-linecap="butt" d="m620.6415 196.63759c0 19.74411 0.01574707 29.618134 0.03149414 39.488205l0.020874023 15.472427" fill-rule="evenodd"/><path fill="#000000" stroke="#000000" stroke-width="4.0" stroke-linecap="butt" d="m614.087 251.60114l6.614929 18.149475l6.598877 -18.155304z" fill-rule="evenodd"/><path fill="#000000" fill-opacity="0.0" d="m379.3392 196.6376c0 21.066772 0.01574707 31.602066 0.03149414 42.13356c0.01574707 10.531494 0.03149414 21.059189 0.03149414 42.118393" fill-rule="evenodd"/><path stroke="#000000" stroke-width="4.0" stroke-linejoin="round" stroke-linecap="butt" d="m379.3392 196.63759c0 21.066788 0.01574707 31.602081 0.03149414 42.133575c0.007873535 5.265747 0.01574707 10.530548 0.021636963 17.111298l6.713867E-4 1.0070953" fill-rule="evenodd"/><path fill="#000000" stroke="#000000" stroke-width="4.0" stroke-linecap="butt" d="m372.78607 256.8921l6.6138916 18.149872l6.5999756 -18.154938z" fill-rule="evenodd"/><path fill="#000000" fill-opacity="0.0" d="m195.39853 58.16032c0 -25.08057 31.645676 -50.169018 63.29135 -50.16114c31.64566 0.007874489 63.29132 25.112066 63.29132 50.224136" fill-rule="evenodd"/><path stroke="#000000" stroke-width="4.0" stroke-linejoin="round" stroke-linecap="butt" d="m195.39854 58.16032c0 -25.08057 31.64566 -50.169018 63.291336 -50.16114c15.822845 0.0039367676 31.64566 6.281954 43.512787 15.697996c2.9667969 2.3540096 5.6863403 4.9041443 8.096863 7.601408c1.2052612 1.3486309 2.333252 2.734045 3.3762512 4.150114l0.14794922 0.20349884" fill-rule="evenodd"/><path fill="#000000" stroke="#000000" stroke-width="4.0" stroke-linecap="butt" d="m307.61017 37.897858l12.383484 14.825993l0.043640137 -19.317322z" fill-rule="evenodd"/><path fill="#000000" fill-opacity="0.0" d="m436.69836 58.16032c0 -25.08057 31.64566 -50.169018 63.29132 -50.16114c31.64569 0.007874489 63.29138 25.112066 63.29138 50.224136" fill-rule="evenodd"/><path stroke="#000000" stroke-width="4.0" stroke-linejoin="round" stroke-linecap="butt" d="m436.69836 58.16032c0 -25.08057 31.64566 -50.169018 63.29135 -50.16114c15.822845 0.0039367676 31.64566 6.281954 43.512787 15.697996c2.9667969 2.3540096 5.6863403 4.9041443 8.096802 7.601408c1.2052612 1.3486309 2.333252 2.734045 3.3762817 4.150114l0.14794922 0.20349884" fill-rule="evenodd"/><path fill="#000000" stroke="#000000" stroke-width="4.0" stroke-linecap="butt" d="m548.91 37.897858l12.383484 14.825993l0.043701172 -19.317322z" fill-rule="evenodd"/><path fill="#000000" fill-opacity="0.0" d="m678.0007 58.16032c0 -25.08057 31.64563 -50.169018 63.29132 -50.16114c31.64569 0.007874489 63.29132 25.112066 63.29132 50.224136" fill-rule="evenodd"/><path stroke="#000000" stroke-width="4.0" stroke-linejoin="round" stroke-linecap="butt" d="m678.0007 58.16032c0 -25.08057 31.64563 -50.169018 63.29132 -50.16114c15.822815 0.0039367676 31.64569 6.281954 43.512817 15.697996c2.9667358 2.3540096 5.6863403 4.9041443 8.096863 7.601408c1.2052002 1.3486309 2.333252 2.734045 3.3762207 4.150114l0.14794922 0.20349884" fill-rule="evenodd"/><path fill="#000000" stroke="#000000" stroke-width="4.0" stroke-linecap="butt" d="m790.2123 37.897858l12.383484 14.825993l0.043640137 -19.317322z" fill-rule="evenodd"/><path fill="#95362d" d="m56.92126 115.519485l0 0c0 -44.800293 36.317814 -81.11811 81.1181 -81.11811l0 0c21.51387 0 42.146576 8.546349 57.35916 23.758945c15.212601 15.212597 23.758957 35.845303 23.758957 57.359165l0 0c0 44.800293 -36.317825 81.11812 -81.11812 81.11812l0 0c-44.800293 0 -81.1181 -36.317825 -81.1181 -81.11812z" fill-rule="evenodd"/><path stroke="#c22d29" stroke-width="4.0" stroke-linejoin="round" stroke-linecap="butt" d="m56.92126 115.519485l0 0c0 -44.800293 36.317814 -81.11811 81.1181 -81.11811l0 0c21.51387 0 42.146576 8.546349 57.35916 23.758945c15.212601 15.212597 23.758957 35.845303 23.758957 57.359165l0 0c0 44.800293 -36.317825 81.11812 -81.11812 81.11812l0 0c-44.800293 0 -81.1181 -36.317825 -81.1181 -81.11812z" fill-rule="evenodd"/><path fill="#95362d" d="m298.22107 115.519485l0 0c0 -44.800293 36.31784 -81.11811 81.11813 -81.11811l0 0c21.513855 0 42.146545 8.546349 57.35916 23.758945c15.212585 15.212597 23.758942 35.845303 23.758942 57.359165l0 0c0 44.800293 -36.31781 81.11812 -81.1181 81.11812l0 0c-44.800293 0 -81.11813 -36.317825 -81.11813 -81.11812z" fill-rule="evenodd"/><path stroke="#c22d29" stroke-width="4.0" stroke-linejoin="round" stroke-linecap="butt" d="m298.22107 115.519485l0 0c0 -44.800293 36.31784 -81.11811 81.11813 -81.11811l0 0c21.513855 0 42.146545 8.546349 57.35916 23.758945c15.212585 15.212597 23.758942 35.845303 23.758942 57.359165l0 0c0 44.800293 -36.31781 81.11812 -81.1181 81.11812l0 0c-44.800293 0 -81.11813 -36.317825 -81.11813 -81.11812z" fill-rule="evenodd"/><path fill="#000000" fill-opacity="0.0" d="m56.92126 95.679726l162.23622 0l0 39.65354l-162.23622 0z" fill-rule="evenodd"/><path fill="#ffffff" d="m68.37542 122.2265l0 -13.0625l5.9375 0q2.125 0 3.75 0.8125q1.625 0.8125 2.53125 2.265625q0.921875 1.453125 0.921875 3.453125q0 1.984375 -0.921875 3.453125q-0.90625 1.453125 -2.53125 2.265625q-1.625 0.8125 -3.75 0.8125l-5.9375 0zm3.03125 -2.484375l2.75 0q1.3125 0 2.265625 -0.484375q0.96875 -0.5 1.5 -1.40625q0.53125 -0.921875 0.53125 -2.15625q0 -1.25 -0.53125 -2.15625q-0.53125 -0.90625 -1.5 -1.390625q-0.953125 -0.5 -2.265625 -0.5l-2.75 0l0 8.09375zm16.95694 2.640625q-1.609375 0 -2.859375 -0.671875q-1.234375 -0.671875 -1.953125 -1.84375q-0.71875 -1.171875 -0.71875 -2.65625q0 -1.515625 0.71875 -2.671875q0.71875 -1.171875 1.953125 -1.828125q1.25 -0.671875 2.859375 -0.671875q1.578125 0 2.828125 0.671875q1.25 0.65625 1.953125 1.8125q0.71875 1.15625 0.71875 2.6875q0 1.484375 -0.71875 2.65625q-0.703125 1.171875 -1.953125 1.84375q-1.25 0.671875 -2.828125 0.671875zm0 -2.390625q0.71875 0 1.296875 -0.328125q0.578125 -0.34375 0.90625 -0.96875q0.34375 -0.625 0.34375 -1.484375q0 -0.875 -0.34375 -1.484375q-0.328125 -0.625 -0.90625 -0.953125q-0.578125 -0.34375 -1.296875 -0.34375q-0.734375 0 -1.3125 0.34375q-0.578125 0.328125 -0.921875 0.953125q-0.34375 0.609375 -0.34375 1.484375q0 0.859375 0.34375 1.484375q0.34375 0.625 0.921875 0.96875q0.578125 0.328125 1.3125 0.328125zm9.455475 2.234375l-3.625 -10.03125l2.75 0l3.0 8.625l-1.3125 0l3.140625 -8.625l2.46875 0l3.03125 8.625l-1.296875 0l3.09375 -8.625l2.578125 0l-3.640625 10.03125l-2.828125 0l-2.65625 -7.40625l0.859375 0l-2.765625 7.40625l-2.796875 0zm21.277786 -10.1875q1.203125 0 2.140625 0.484375q0.9375 0.46875 1.484375 1.453125q0.546875 0.96875 0.546875 2.5l0 5.75l-2.921875 0l0 -5.296875q0 -1.21875 -0.53125 -1.796875q-0.53125 -0.578125 -1.5 -0.578125q-0.6875 0 -1.234375 0.296875q-0.546875 0.28125 -0.859375 0.890625q-0.3125 0.59375 -0.3125 1.515625l0 4.96875l-2.90625 0l0 -10.03125l2.78125 0l0 2.78125l-0.53125 -0.84375q0.546875 -1.015625 1.546875 -1.546875q1.015625 -0.546875 2.296875 -0.546875zm6.797714 10.1875l0 -13.84375l2.9062576 0l0 13.84375l-2.9062576 0zm10.396797 0.15625q-1.609375 0 -2.859375 -0.671875q-1.234375 -0.671875 -1.953125 -1.84375q-0.71875 -1.171875 -0.71875 -2.65625q0 -1.515625 0.71875 -2.671875q0.71875 -1.171875 1.953125 -1.828125q1.25 -0.671875 2.859375 -0.671875q1.578125 0 2.828125 0.671875q1.25 0.65625 1.953125 1.8125q0.71875 1.15625 0.71875 2.6875q0 1.484375 -0.71875 2.65625q-0.703125 1.171875 -1.953125 1.84375q-1.25 0.671875 -2.828125 0.671875zm0 -2.390625q0.71875 0 1.296875 -0.328125q0.578125 -0.34375 0.90625 -0.96875q0.34375 -0.625 0.34375 -1.484375q0 -0.875 -0.34375 -1.484375q-0.328125 -0.625 -0.90625 -0.953125q-0.578125 -0.34375 -1.296875 -0.34375q-0.734375 0 -1.3125 0.34375q-0.578125 0.328125 -0.921875 0.953125q-0.34375 0.609375 -0.34375 1.484375q0 0.859375 0.34375 1.484375q0.34375 0.625 0.921875 0.96875q0.578125 0.328125 1.3125 0.328125zm13.426849 2.234375l0 -1.953125l-0.1875 -0.4375l0 -3.5q0 -0.9375 -0.578125 -1.453125q-0.5625 -0.53125 -1.734375 -0.53125q-0.796875 0 -1.578125 0.25q-0.765625 0.25 -1.3125 0.6875l-1.046875 -2.03125q0.828125 -0.578125 1.984375 -0.890625q1.15625 -0.328125 2.34375 -0.328125q2.296875 0 3.5625 1.09375q1.265625 1.078125 1.265625 3.359375l0 5.734375l-2.71875 0zm-3.0625 0.15625q-1.171875 0 -2.015625 -0.40625q-0.84375 -0.40625 -1.296875 -1.09375q-0.4375 -0.6875 -0.4375 -1.546875q0 -0.890625 0.4375 -1.5625q0.4375 -0.671875 1.390625 -1.046875q0.953125 -0.390625 2.484375 -0.390625l2.671875 0l0 1.6875l-2.359375 0q-1.015625 0 -1.40625 0.34375q-0.375 0.328125 -0.375 0.84375q0 0.546875 0.4375 0.875q0.4375 0.328125 1.203125 0.328125q0.71875 0 1.296875 -0.34375q0.578125 -0.34375 0.84375 -1.015625l0.453125 1.34375q-0.328125 0.96875 -1.171875 1.484375q-0.828125 0.5 -2.15625 0.5zm12.804321 0q-1.421875 0 -2.5625 -0.640625q-1.140625 -0.65625 -1.796875 -1.8125q-0.65625 -1.15625 -0.65625 -2.71875q0 -1.59375 0.65625 -2.75q0.65625 -1.15625 1.796875 -1.78125q1.140625 -0.640625 2.5625 -0.640625q1.265625 0 2.21875 0.5625q0.953125 0.5625 1.46875 1.703125q0.53125 1.125 0.53125 2.90625q0 1.75 -0.515625 2.90625q-0.5 1.140625 -1.4375 1.703125q-0.9375 0.5625 -2.265625 0.5625zm0.5 -2.390625q0.703125 0 1.28125 -0.328125q0.578125 -0.34375 0.921875 -0.96875q0.359375 -0.625 0.359375 -1.484375q0 -0.875 -0.359375 -1.484375q-0.34375 -0.625 -0.921875 -0.953125q-0.578125 -0.34375 -1.28125 -0.34375q-0.734375 0 -1.3125 0.34375q-0.578125 0.328125 -0.921875 0.953125q-0.34375 0.609375 -0.34375 1.484375q0 0.859375 0.34375 1.484375q0.34375 0.625 0.921875 0.96875q0.578125 0.328125 1.3125 0.328125zm2.625 2.234375l0 -2.046875l0.0625 -2.984375l-0.1875 -2.96875l0 -5.84375l2.90625 0l0 13.84375l-2.78125 0zm16.9086 0l0 -1.953125l-0.1875 -0.4375l0 -3.5q0 -0.9375 -0.578125 -1.453125q-0.5625 -0.53125 -1.734375 -0.53125q-0.796875 0 -1.578125 0.25q-0.765625 0.25 -1.3125 0.6875l-1.046875 -2.03125q0.828125 -0.578125 1.984375 -0.890625q1.15625 -0.328125 2.34375 -0.328125q2.296875 0 3.5625 1.09375q1.265625 1.078125 1.265625 3.359375l0 5.734375l-2.71875 0zm-3.0625 0.15625q-1.171875 0 -2.015625 -0.40625q-0.84375 -0.40625 -1.296875 -1.09375q-0.4375 -0.6875 -0.4375 -1.546875q0 -0.890625 0.4375 -1.5625q0.4375 -0.671875 1.390625 -1.046875q0.953125 -0.390625 2.484375 -0.390625l2.671875 0l0 1.6875l-2.359375 0q-1.015625 0 -1.40625 0.34375q-0.375 0.328125 -0.375 0.84375q0 0.546875 0.4375 0.875q0.4375 0.328125 1.203125 0.328125q0.71875 0 1.296875 -0.34375q0.578125 -0.34375 0.84375 -1.015625l0.453125 1.34375q-0.328125 0.96875 -1.171875 1.484375q-0.828125 0.5 -2.15625 0.5zm14.35466 0q-1.28125 0 -2.234375 -0.5625q-0.9375 -0.5625 -1.46875 -1.703125q-0.53125 -1.15625 -0.53125 -2.90625q0 -1.78125 0.5 -2.90625q0.5 -1.140625 1.453125 -1.703125q0.953125 -0.5625 2.28125 -0.5625q1.40625 0 2.53125 0.640625q1.140625 0.640625 1.796875 1.8125q0.671875 1.15625 0.671875 2.71875q0 1.578125 -0.671875 2.734375q-0.65625 1.15625 -1.796875 1.796875q-1.125 0.640625 -2.53125 0.640625zm-5.9375 3.46875l0 -13.65625l2.78125 0l0 2.046875l-0.0625 2.984375l0.1875 2.96875l0 5.65625l-2.90625 0zm5.421875 -5.859375q0.734375 0 1.296875 -0.328125q0.578125 -0.34375 0.921875 -0.96875q0.34375 -0.625 0.34375 -1.484375q0 -0.875 -0.34375 -1.484375q-0.34375 -0.625 -0.921875 -0.953125q-0.5625 -0.34375 -1.296875 -0.34375q-0.71875 0 -1.296875 0.34375q-0.578125 0.328125 -0.921875 0.953125q-0.328125 0.609375 -0.328125 1.484375q0 0.859375 0.328125 1.484375q0.34375 0.625 0.921875 0.96875q0.578125 0.328125 1.296875 0.328125zm13.388443 2.390625q-1.28125 0 -2.234375 -0.5625q-0.9375 -0.5625 -1.46875 -1.703125q-0.53125 -1.15625 -0.53125 -2.90625q0 -1.78125 0.5 -2.90625q0.5 -1.140625 1.453125 -1.703125q0.953125 -0.5625 2.28125 -0.5625q1.40625 0 2.53125 0.640625q1.140625 0.640625 1.796875 1.8125q0.671875 1.15625 0.671875 2.71875q0 1.578125 -0.671875 2.734375q-0.65625 1.15625 -1.796875 1.796875q-1.125 0.640625 -2.53125 0.640625zm-5.9375 3.46875l0 -13.65625l2.78125 0l0 2.046875l-0.0625 2.984375l0.1875 2.96875l0 5.65625l-2.90625 0zm5.421875 -5.859375q0.734375 0 1.296875 -0.328125q0.578125 -0.34375 0.921875 -0.96875q0.34375 -0.625 0.34375 -1.484375q0 -0.875 -0.34375 -1.484375q-0.34375 -0.625 -0.921875 -0.953125q-0.5625 -0.34375 -1.296875 -0.34375q-0.71875 0 -1.296875 0.34375q-0.578125 0.328125 -0.921875 0.953125q-0.328125 0.609375 -0.328125 1.484375q0 0.859375 0.328125 1.484375q0.34375 0.625 0.921875 0.96875q0.578125 0.328125 1.296875 0.328125z" fill-rule="nonzero"/><path fill="#000000" fill-opacity="0.0" d="m303.0538 95.679726l152.56693 0l0 39.65354l-152.56693 0z" fill-rule="evenodd"/><path fill="#ffffff" d="m347.9618 122.44525q-1.578125 0 -3.015625 -0.40625q-1.421875 -0.421875 -2.3125 -1.09375l1.03125 -2.28125q0.84375 0.59375 1.984375 0.984375q1.15625 0.375 2.328125 0.375q0.890625 0 1.4375 -0.171875q0.5625 -0.1875 0.8125 -0.5q0.265625 -0.3125 0.265625 -0.71875q0 -0.53125 -0.40625 -0.828125q-0.40625 -0.3125 -1.078125 -0.5q-0.671875 -0.203125 -1.484375 -0.375q-0.8125 -0.1875 -1.625 -0.4375q-0.8125 -0.265625 -1.484375 -0.671875q-0.671875 -0.421875 -1.09375 -1.09375q-0.421875 -0.671875 -0.421875 -1.71875q0 -1.109375 0.609375 -2.03125q0.609375 -0.9375 1.828125 -1.484375q1.21875 -0.546875 3.0625 -0.546875q1.234375 0 2.421875 0.296875q1.203125 0.28125 2.125 0.859375l-0.9375 2.296875q-0.921875 -0.53125 -1.84375 -0.78125q-0.90625 -0.25 -1.78125 -0.25q-0.875 0 -1.4375 0.203125q-0.5625 0.203125 -0.8125 0.53125q-0.234375 0.328125 -0.234375 0.765625q0 0.5 0.40625 0.8125q0.421875 0.296875 1.09375 0.484375q0.671875 0.1875 1.484375 0.375q0.8125 0.1875 1.625 0.4375q0.8125 0.234375 1.484375 0.65625q0.671875 0.40625 1.078125 1.078125q0.421875 0.671875 0.421875 1.6875q0 1.109375 -0.609375 2.03125q-0.609375 0.90625 -1.84375 1.46875q-1.21875 0.546875 -3.078125 0.546875zm7.4026794 -0.21875l0 -10.03125l2.90625 0l0 10.03125l-2.90625 0zm1.453125 -11.4375q-0.796875 0 -1.3125 -0.46875q-0.5 -0.46875 -0.5 -1.15625q0 -0.6875 0.5 -1.15625q0.515625 -0.46875 1.3125 -0.46875q0.8125 0 1.3125 0.4375q0.5 0.4375 0.5 1.140625q0 0.71875 -0.5 1.203125q-0.484375 0.46875 -1.3125 0.46875zm8.881165 15.203125q-1.421875 0 -2.734375 -0.34375q-1.3125 -0.34375 -2.1875 -1.03125l1.15625 -2.09375q0.625 0.53125 1.609375 0.828125q0.984375 0.3125 1.9375 0.3125q1.546875 0 2.234375 -0.6875q0.703125 -0.6875 0.703125 -2.0625l0 -1.5l0.1875 -2.515625l-0.03125 -2.546875l0 -2.15625l2.765625 0l0 8.359375q0 2.796875 -1.46875 4.109375q-1.453125 1.328125 -4.171875 1.328125zm-0.453125 -4.25q-1.390625 0 -2.53125 -0.609375q-1.125 -0.609375 -1.8125 -1.6875q-0.671875 -1.09375 -0.671875 -2.546875q0 -1.484375 0.671875 -2.578125q0.6875 -1.09375 1.8125 -1.6875q1.140625 -0.59375 2.53125 -0.59375q1.28125 0 2.25 0.515625q0.96875 0.515625 1.5 1.59375q0.546875 1.0625 0.546875 2.75q0 1.65625 -0.546875 2.734375q-0.53125 1.0625 -1.5 1.59375q-0.96875 0.515625 -2.25 0.515625zm0.578125 -2.390625q0.765625 0 1.359375 -0.296875q0.609375 -0.3125 0.9375 -0.875q0.34375 -0.5625 0.34375 -1.28125q0 -0.75 -0.34375 -1.296875q-0.328125 -0.5625 -0.9375 -0.859375q-0.59375 -0.3125 -1.359375 -0.3125q-0.765625 0 -1.359375 0.3125q-0.59375 0.296875 -0.9375 0.859375q-0.34375 0.546875 -0.34375 1.296875q0 0.71875 0.34375 1.28125q0.34375 0.5625 0.9375 0.875q0.59375 0.296875 1.359375 0.296875zm14.309387 -7.3125q1.203125 0 2.140625 0.484375q0.9375 0.46875 1.484375 1.453125q0.546875 0.96875 0.546875 2.5l0 5.75l-2.921875 0l0 -5.296875q0 -1.21875 -0.53125 -1.796875q-0.53125 -0.578125 -1.5 -0.578125q-0.6875 0 -1.234375 0.296875q-0.546875 0.28125 -0.859375 0.890625q-0.3125 0.59375 -0.3125 1.515625l0 4.96875l-2.90625 0l0 -10.03125l2.78125 0l0 2.78125l-0.53125 -0.84375q0.546875 -1.015625 1.546875 -1.546875q1.015625 -0.546875 2.296875 -0.546875zm16.311798 10.34375q-1.25 0 -2.234375 -0.484375q-0.96875 -0.5 -1.515625 -1.484375q-0.546875 -1.0 -0.546875 -2.546875l0 -5.671875l2.921875 0l0 5.234375q0 1.25 0.53125 1.84375q0.53125 0.578125 1.5 0.578125q0.671875 0 1.1875 -0.28125q0.53125 -0.296875 0.828125 -0.890625q0.296875 -0.609375 0.296875 -1.53125l0 -4.953125l2.90625 0l0 10.03125l-2.765625 0l0 -2.765625l0.515625 0.8125q-0.515625 1.03125 -1.5 1.578125q-0.96875 0.53125 -2.125 0.53125zm14.519989 0q-1.28125 0 -2.234375 -0.5625q-0.9375 -0.5625 -1.46875 -1.703125q-0.53125 -1.15625 -0.53125 -2.90625q0 -1.78125 0.5 -2.90625q0.5 -1.140625 1.453125 -1.703125q0.953125 -0.5625 2.28125 -0.5625q1.40625 0 2.53125 0.640625q1.140625 0.640625 1.796875 1.8125q0.671875 1.15625 0.671875 2.71875q0 1.578125 -0.671875 2.734375q-0.65625 1.15625 -1.796875 1.796875q-1.125 0.640625 -2.53125 0.640625zm-5.9375 3.46875l0 -13.65625l2.78125 0l0 2.046875l-0.0625 2.984375l0.1875 2.96875l0 5.65625l-2.90625 0zm5.421875 -5.859375q0.734375 0 1.296875 -0.328125q0.578125 -0.34375 0.921875 -0.96875q0.34375 -0.625 0.34375 -1.484375q0 -0.875 -0.34375 -1.484375q-0.34375 -0.625 -0.921875 -0.953125q-0.5625 -0.34375 -1.296875 -0.34375q-0.71875 0 -1.296875 0.34375q-0.578125 0.328125 -0.921875 0.953125q-0.328125 0.609375 -0.328125 1.484375q0 0.859375 0.328125 1.484375q0.34375 0.625 0.921875 0.96875q0.578125 0.328125 1.296875 0.328125z" fill-rule="nonzero"/><path fill="#95362d" d="m539.5234 115.519485l0 0c0 -44.800293 36.31781 -81.11811 81.1181 -81.11811l0 0c21.513855 0 42.146606 8.546349 57.35919 23.758945c15.212585 15.212597 23.758911 35.845303 23.758911 57.359165l0 0c0 44.800293 -36.31781 81.11812 -81.1181 81.11812l0 0c-44.800293 0 -81.1181 -36.317825 -81.1181 -81.11812z" fill-rule="evenodd"/><path stroke="#c22d29" stroke-width="4.0" stroke-linejoin="round" stroke-linecap="butt" d="m539.5234 115.519485l0 0c0 -44.800293 36.31781 -81.11811 81.1181 -81.11811l0 0c21.513855 0 42.146606 8.546349 57.35919 23.758945c15.212585 15.212597 23.758911 35.845303 23.758911 57.359165l0 0c0 44.800293 -36.31781 81.11812 -81.1181 81.11812l0 0c-44.800293 0 -81.1181 -36.317825 -81.1181 -81.11812z" fill-rule="evenodd"/><path fill="#000000" fill-opacity="0.0" d="m544.3561 95.679726l152.56696 0l0 39.65354l-152.56696 0z" fill-rule="evenodd"/><path fill="#ffffff" d="m559.0799 122.2265l0 -10.59375l-4.171875 0l0 -2.46875l11.375 0l0 2.46875l-4.171875 0l0 10.59375l-3.03125 0zm14.275574 0l0 -1.953125l-0.1875 -0.4375l0 -3.5q0 -0.9375 -0.578125 -1.453125q-0.5625 -0.53125 -1.734375 -0.53125q-0.796875 0 -1.578125 0.25q-0.765625 0.25 -1.3125 0.6875l-1.046875 -2.03125q0.828125 -0.578125 1.984375 -0.890625q1.15625 -0.328125 2.34375 -0.328125q2.296875 0 3.5625 1.09375q1.265625 1.078125 1.265625 3.359375l0 5.734375l-2.71875 0zm-3.0625 0.15625q-1.171875 0 -2.015625 -0.40625q-0.84375 -0.40625 -1.296875 -1.09375q-0.4375 -0.6875 -0.4375 -1.546875q0 -0.890625 0.4375 -1.5625q0.4375 -0.671875 1.390625 -1.046875q0.953125 -0.390625 2.484375 -0.390625l2.671875 0l0 1.6875l-2.359375 0q-1.015625 0 -1.40625 0.34375q-0.375 0.328125 -0.375 0.84375q0 0.546875 0.4375 0.875q0.4375 0.328125 1.203125 0.328125q0.71875 0 1.296875 -0.34375q0.578125 -0.34375 0.84375 -1.015625l0.453125 1.34375q-0.328125 0.96875 -1.171875 1.484375q-0.828125 0.5 -2.15625 0.5zm10.823425 -2.203125l0.078125 -3.546875l4.671875 -4.4375l3.484375 0l-4.5 4.5625l-1.515625 1.234375l-2.21875 2.1875zm-2.40625 2.046875l0 -13.84375l2.90625 0l0 13.84375l-2.90625 0zm7.484375 0l-3.40625 -4.21875l1.828125 -2.25l5.09375 6.46875l-3.515625 0zm9.383789 0.15625q-1.71875 0 -3.015625 -0.671875q-1.296875 -0.671875 -2.015625 -1.84375q-0.703125 -1.171875 -0.703125 -2.65625q0 -1.515625 0.703125 -2.671875q0.703125 -1.171875 1.90625 -1.828125q1.21875 -0.671875 2.75 -0.671875q1.46875 0 2.65625 0.625q1.1875 0.625 1.875 1.796875q0.6875 1.15625 0.6875 2.78125q0 0.171875 -0.015625 0.390625q-0.015625 0.203125 -0.03125 0.390625l-8.15625 0l0 -1.6875l6.625 0l-1.125 0.5q0 -0.78125 -0.328125 -1.359375q-0.3125 -0.578125 -0.875 -0.90625q-0.546875 -0.328125 -1.296875 -0.328125q-0.75 0 -1.328125 0.328125q-0.5625 0.328125 -0.875 0.921875q-0.3125 0.578125 -0.3125 1.375l0 0.453125q0 0.828125 0.359375 1.453125q0.359375 0.625 1.015625 0.953125q0.671875 0.3125 1.578125 0.3125q0.796875 0 1.390625 -0.234375q0.609375 -0.25 1.125 -0.734375l1.546875 1.6875q-0.6875 0.78125 -1.734375 1.203125q-1.046875 0.421875 -2.40625 0.421875zm18.004944 0q-1.28125 0 -2.234375 -0.5625q-0.9375 -0.5625 -1.46875 -1.703125q-0.53125 -1.15625 -0.53125 -2.90625q0 -1.78125 0.5 -2.90625q0.5 -1.140625 1.453125 -1.703125q0.953125 -0.5625 2.28125 -0.5625q1.40625 0 2.53125 0.640625q1.140625 0.640625 1.796875 1.8125q0.671875 1.15625 0.671875 2.71875q0 1.578125 -0.671875 2.734375q-0.65625 1.15625 -1.796875 1.796875q-1.125 0.640625 -2.53125 0.640625zm-5.9375 3.46875l0 -13.65625l2.78125 0l0 2.046875l-0.0625 2.984375l0.1875 2.96875l0 5.65625l-2.90625 0zm5.421875 -5.859375q0.734375 0 1.296875 -0.328125q0.578125 -0.34375 0.921875 -0.96875q0.34375 -0.625 0.34375 -1.484375q0 -0.875 -0.34375 -1.484375q-0.34375 -0.625 -0.921875 -0.953125q-0.5625 -0.34375 -1.296875 -0.34375q-0.71875 0 -1.296875 0.34375q-0.578125 0.328125 -0.921875 0.953125q-0.328125 0.609375 -0.328125 1.484375q0 0.859375 0.328125 1.484375q0.34375 0.625 0.921875 0.96875q0.578125 0.328125 1.296875 0.328125zm7.4509277 2.234375l0 -10.03125l2.90625 0l0 10.03125l-2.90625 0zm1.453125 -11.4375q-0.796875 0 -1.3125 -0.46875q-0.5 -0.46875 -0.5 -1.15625q0 -0.6875 0.5 -1.15625q0.515625 -0.46875 1.3125 -0.46875q0.8125 0 1.3125 0.4375q0.5 0.4375 0.5 1.140625q0 0.71875 -0.5 1.203125q-0.484375 0.46875 -1.3125 0.46875zm9.006165 11.59375q-1.609375 0 -2.890625 -0.65625q-1.265625 -0.671875 -1.984375 -1.84375q-0.71875 -1.1875 -0.71875 -2.671875q0 -1.515625 0.71875 -2.671875q0.71875 -1.171875 1.984375 -1.828125q1.28125 -0.671875 2.890625 -0.671875q1.59375 0 2.765625 0.671875q1.171875 0.65625 1.734375 1.890625l-2.25 1.203125q-0.390625 -0.703125 -0.984375 -1.03125q-0.59375 -0.34375 -1.28125 -0.34375q-0.75 0 -1.34375 0.34375q-0.59375 0.328125 -0.9375 0.953125q-0.34375 0.609375 -0.34375 1.484375q0 0.875 0.34375 1.5q0.34375 0.609375 0.9375 0.953125q0.59375 0.328125 1.34375 0.328125q0.6875 0 1.28125 -0.328125q0.59375 -0.328125 0.984375 -1.0625l2.25 1.234375q-0.5625 1.21875 -1.734375 1.890625q-1.171875 0.65625 -2.765625 0.65625zm10.440796 0q-1.78125 0 -2.765625 -0.90625q-0.984375 -0.90625 -0.984375 -2.703125l0 -8.796875l2.90625 0l0 8.765625q0 0.625 0.328125 0.96875q0.34375 0.34375 0.921875 0.34375q0.6875 0 1.171875 -0.359375l0.78125 2.046875q-0.4375 0.3125 -1.0625 0.484375q-0.625 0.15625 -1.296875 0.15625zm-5.296875 -7.734375l0 -2.234375l6.953125 0l0 2.234375l-6.953125 0zm13.5373535 7.734375q-1.25 0 -2.234375 -0.484375q-0.96875 -0.5 -1.515625 -1.484375q-0.546875 -1.0 -0.546875 -2.546875l0 -5.671875l2.921875 0l0 5.234375q0 1.25 0.53125 1.84375q0.53125 0.578125 1.5 0.578125q0.671875 0 1.1875 -0.28125q0.53125 -0.296875 0.828125 -0.890625q0.296875 -0.609375 0.296875 -1.53125l0 -4.953125l2.90625 0l0 10.03125l-2.765625 0l0 -2.765625l0.515625 0.8125q-0.515625 1.03125 -1.5 1.578125q-0.96875 0.53125 -2.125 0.53125zm8.5824585 -0.15625l0 -10.03125l2.78125 0l0 2.828125l-0.390625 -0.8125q0.4375 -1.0625 1.421875 -1.609375q1.0 -0.5625 2.421875 -0.5625l0 2.6875q-0.1875 -0.015625 -0.34375 -0.015625q-0.140625 -0.015625 -0.3125 -0.015625q-1.1875 0 -1.9375 0.6875q-0.734375 0.671875 -0.734375 2.109375l0 4.734375l-2.90625 0zm12.857239 0.15625q-1.71875 0 -3.015625 -0.671875q-1.296875 -0.671875 -2.015625 -1.84375q-0.703125 -1.171875 -0.703125 -2.65625q0 -1.515625 0.703125 -2.671875q0.703125 -1.171875 1.90625 -1.828125q1.21875 -0.671875 2.75 -0.671875q1.46875 0 2.65625 0.625q1.1875 0.625 1.875 1.796875q0.6875 1.15625 0.6875 2.78125q0 0.171875 -0.015625 0.390625q-0.015625 0.203125 -0.03125 0.390625l-8.15625 0l0 -1.6875l6.625 0l-1.125 0.5q0 -0.78125 -0.328125 -1.359375q-0.3125 -0.578125 -0.875 -0.90625q-0.546875 -0.328125 -1.296875 -0.328125q-0.75 0 -1.328125 0.328125q-0.5625 0.328125 -0.875 0.921875q-0.3125 0.578125 -0.3125 1.375l0 0.453125q0 0.828125 0.359375 1.453125q0.359375 0.625 1.015625 0.953125q0.671875 0.3125 1.578125 0.3125q0.796875 0 1.390625 -0.234375q0.609375 -0.25 1.125 -0.734375l1.546875 1.6875q-0.6875 0.78125 -1.734375 1.203125q-1.046875 0.421875 -2.40625 0.421875zm10.16272 0q-1.28125 0 -2.46875 -0.3125q-1.1875 -0.3125 -1.875 -0.78125l0.96875 -2.078125q0.6875 0.421875 1.625 0.703125q0.953125 0.265625 1.859375 0.265625q1.015625 0 1.421875 -0.234375q0.421875 -0.25 0.421875 -0.6875q0 -0.359375 -0.328125 -0.53125q-0.3125 -0.171875 -0.859375 -0.265625q-0.546875 -0.09375 -1.1875 -0.1875q-0.640625 -0.09375 -1.296875 -0.25q-0.65625 -0.15625 -1.203125 -0.46875q-0.53125 -0.328125 -0.859375 -0.859375q-0.328125 -0.546875 -0.328125 -1.40625q0 -0.953125 0.546875 -1.671875q0.5625 -0.734375 1.609375 -1.15625q1.046875 -0.421875 2.5 -0.421875q1.015625 0 2.078125 0.234375q1.0625 0.21875 1.78125 0.640625l-0.96875 2.078125q-0.734375 -0.4375 -1.46875 -0.59375q-0.734375 -0.15625 -1.421875 -0.15625q-0.96875 0 -1.421875 0.265625q-0.453125 0.25 -0.453125 0.671875q0 0.375 0.328125 0.5625q0.328125 0.171875 0.859375 0.296875q0.546875 0.109375 1.1875 0.203125q0.65625 0.078125 1.296875 0.25q0.65625 0.15625 1.1875 0.46875q0.53125 0.296875 0.859375 0.828125q0.34375 0.53125 0.34375 1.390625q0 0.9375 -0.5625 1.65625q-0.546875 0.71875 -1.609375 1.140625q-1.046875 0.40625 -2.5625 0.40625z" fill-rule="nonzero"/><path fill="#95362d" d="m780.8272 115.519485l0 0c0 -44.800293 36.31781 -81.11811 81.1181 -81.11811l0 0c21.513855 0 42.146545 8.546349 57.35919 23.758945c15.212585 15.212597 23.758911 35.845303 23.758911 57.359165l0 0c0 44.800293 -36.31781 81.11812 -81.1181 81.11812l0 0c-44.800293 0 -81.1181 -36.317825 -81.1181 -81.11812z" fill-rule="evenodd"/><path stroke="#c22d29" stroke-width="4.0" stroke-linejoin="round" stroke-linecap="butt" d="m780.8272 115.519485l0 0c0 -44.800293 36.31781 -81.11811 81.1181 -81.11811l0 0c21.513855 0 42.146545 8.546349 57.35919 23.758945c15.212585 15.212597 23.758911 35.845303 23.758911 57.359165l0 0c0 44.800293 -36.31781 81.11812 -81.1181 81.11812l0 0c-44.800293 0 -81.1181 -36.317825 -81.1181 -81.11812z" fill-rule="evenodd"/><path fill="#000000" fill-opacity="0.0" d="m780.8272 95.679726l162.2362 0l0 39.65354l-162.2362 0z" fill-rule="evenodd"/><path fill="#ffffff" d="m824.81555 111.0265l5.828125 -13.0625l2.984375 0l5.84375 13.0625l-3.171875 0l-4.78125 -11.53125l1.1875 0l-4.796875 11.53125l-3.09375 0zm2.921875 -2.796875l0.796875 -2.296875l6.71875 0l0.8125 2.296875l-8.328125 0zm18.97815 -7.390625q1.203125 0 2.140625 0.484375q0.9375 0.46875 1.484375 1.453125q0.546875 0.96875 0.546875 2.5l0 5.75l-2.921875 0l0 -5.296875q0 -1.21875 -0.53125 -1.796875q-0.53125 -0.578125 -1.5 -0.578125q-0.6875 0 -1.234375 0.296875q-0.546875 0.28125 -0.859375 0.890625q-0.3125 0.59375 -0.3125 1.515625l0 4.96875l-2.90625 0l0 -10.03125l2.78125 0l0 2.78125l-0.53125 -0.84375q0.546875 -1.015625 1.546875 -1.546875q1.015625 -0.546875 2.296875 -0.546875zm10.1727295 10.34375q-1.28125 0 -2.46875 -0.3125q-1.1875 -0.3125 -1.875 -0.78125l0.96875 -2.078125q0.6875 0.421875 1.625 0.703125q0.953125 0.265625 1.859375 0.265625q1.015625 0 1.421875 -0.234375q0.421875 -0.25 0.421875 -0.6875q0 -0.359375 -0.328125 -0.53125q-0.3125 -0.171875 -0.859375 -0.265625q-0.546875 -0.09375 -1.1875 -0.1875q-0.640625 -0.09375 -1.296875 -0.25q-0.65625 -0.15625 -1.203125 -0.46875q-0.53125 -0.328125 -0.859375 -0.859375q-0.328125 -0.546875 -0.328125 -1.40625q0 -0.953125 0.546875 -1.671875q0.5625 -0.734375 1.609375 -1.15625q1.046875 -0.421875 2.5 -0.421875q1.015625 0 2.078125 0.234375q1.0625 0.21875 1.78125 0.640625l-0.96875 2.078125q-0.734375 -0.4375 -1.46875 -0.59375q-0.734375 -0.15625 -1.421875 -0.15625q-0.96875 0 -1.421875 0.265625q-0.453125 0.25 -0.453125 0.671875q0 0.375 0.328125 0.5625q0.328125 0.171875 0.859375 0.296875q0.546875 0.109375 1.1875 0.203125q0.65625 0.078125 1.296875 0.25q0.65625 0.15625 1.1875 0.46875q0.53125 0.296875 0.859375 0.828125q0.34375 0.53125 0.34375 1.390625q0 0.9375 -0.5625 1.65625q-0.546875 0.71875 -1.609375 1.140625q-1.046875 0.40625 -2.5625 0.40625zm8.641663 -0.15625l-3.625 -10.03125l2.75 0l3.0 8.625l-1.3125 0l3.140625 -8.625l2.46875 0l3.03125 8.625l-1.296875 0l3.09375 -8.625l2.578125 0l-3.640625 10.03125l-2.828125 0l-2.65625 -7.40625l0.859375 0l-2.765625 7.40625l-2.796875 0zm19.888428 0.15625q-1.71875 0 -3.015625 -0.671875q-1.296875 -0.671875 -2.015625 -1.84375q-0.703125 -1.171875 -0.703125 -2.65625q0 -1.515625 0.703125 -2.671875q0.703125 -1.171875 1.90625 -1.828125q1.21875 -0.671875 2.75 -0.671875q1.46875 0 2.65625 0.625q1.1875 0.625 1.875 1.796875q0.6875 1.15625 0.6875 2.78125q0 0.171875 -0.015625 0.390625q-0.015625 0.203125 -0.03125 0.390625l-8.15625 0l0 -1.6875l6.625 0l-1.125 0.5q0 -0.78125 -0.328125 -1.359375q-0.3125 -0.578125 -0.875 -0.90625q-0.546875 -0.328125 -1.296875 -0.328125q-0.75 0 -1.328125 0.328125q-0.5625 0.328125 -0.875 0.921875q-0.3125 0.578125 -0.3125 1.375l0 0.453125q0 0.828125 0.359375 1.453125q0.359375 0.625 1.015625 0.953125q0.671875 0.3125 1.578125 0.3125q0.796875 0 1.390625 -0.234375q0.609375 -0.25 1.125 -0.734375l1.546875 1.6875q-0.6875 0.78125 -1.734375 1.203125q-1.046875 0.421875 -2.40625 0.421875zm6.7877197 -0.15625l0 -10.03125l2.78125 0l0 2.828125l-0.390625 -0.8125q0.4375 -1.0625 1.421875 -1.609375q1.0 -0.5625 2.421875 -0.5625l0 2.6875q-0.1875 -0.015625 -0.34375 -0.015625q-0.140625 -0.015625 -0.3125 -0.015625q-1.1875 0 -1.9375 0.6875q-0.734375 0.671875 -0.734375 2.109375l0 4.734375l-2.90625 0z" fill-rule="nonzero"/><path fill="#ffffff" d="m834.4597 133.64525q-1.578125 0 -3.015625 -0.40625q-1.421875 -0.421875 -2.3125 -1.09375l1.03125 -2.28125q0.84375 0.59375 1.984375 0.984375q1.15625 0.375 2.328125 0.375q0.890625 0 1.4375 -0.171875q0.5625 -0.1875 0.8125 -0.5q0.265625 -0.3125 0.265625 -0.71875q0 -0.53125 -0.40625 -0.828125q-0.40625 -0.3125 -1.078125 -0.5q-0.671875 -0.203125 -1.484375 -0.375q-0.8125 -0.1875 -1.625 -0.4375q-0.8125 -0.265625 -1.484375 -0.671875q-0.671875 -0.421875 -1.09375 -1.09375q-0.421875 -0.671875 -0.421875 -1.71875q0 -1.109375 0.609375 -2.03125q0.609375 -0.9375 1.828125 -1.484375q1.21875 -0.546875 3.0625 -0.546875q1.234375 0 2.421875 0.296875q1.203125 0.28125 2.125 0.859375l-0.9375 2.296875q-0.921875 -0.53125 -1.84375 -0.78125q-0.90625 -0.25 -1.78125 -0.25q-0.875 0 -1.4375 0.203125q-0.5625 0.203125 -0.8125 0.53125q-0.234375 0.328125 -0.234375 0.765625q0 0.5 0.40625 0.8125q0.421875 0.296875 1.09375 0.484375q0.671875 0.1875 1.484375 0.375q0.8125 0.1875 1.625 0.4375q0.8125 0.234375 1.484375 0.65625q0.671875 0.40625 1.078125 1.078125q0.421875 0.671875 0.421875 1.6875q0 1.109375 -0.609375 2.03125q-0.609375 0.90625 -1.84375 1.46875q-1.21875 0.546875 -3.078125 0.546875zm11.637085 -0.0625q-1.25 0 -2.234375 -0.484375q-0.96875 -0.5 -1.515625 -1.484375q-0.546875 -1.0 -0.546875 -2.546875l0 -5.671875l2.921875 0l0 5.234375q0 1.25 0.53125 1.84375q0.53125 0.578125 1.5 0.578125q0.671875 0 1.1875 -0.28125q0.53125 -0.296875 0.828125 -0.890625q0.296875 -0.609375 0.296875 -1.53125l0 -4.953125l2.90625 0l0 10.03125l-2.765625 0l0 -2.765625l0.515625 0.8125q-0.515625 1.03125 -1.5 1.578125q-0.96875 0.53125 -2.125 0.53125zm8.5824585 -0.15625l0 -10.03125l2.78125 0l0 2.828125l-0.390625 -0.8125q0.4375 -1.0625 1.421875 -1.609375q1.0 -0.5625 2.421875 -0.5625l0 2.6875q-0.1875 -0.015625 -0.34375 -0.015625q-0.140625 -0.015625 -0.3125 -0.015625q-1.1875 0 -1.9375 0.6875q-0.734375 0.671875 -0.734375 2.109375l0 4.734375l-2.90625 0zm11.039612 0l-4.21875 -10.03125l3.015625 0l3.5 8.625l-1.484375 0l3.625 -8.625l2.8125 0l-4.234375 10.03125l-3.015625 0zm13.142029 0.15625q-1.71875 0 -3.015625 -0.671875q-1.296875 -0.671875 -2.015625 -1.84375q-0.703125 -1.171875 -0.703125 -2.65625q0 -1.515625 0.703125 -2.671875q0.703125 -1.171875 1.90625 -1.828125q1.21875 -0.671875 2.75 -0.671875q1.46875 0 2.65625 0.625q1.1875 0.625 1.875 1.796875q0.6875 1.15625 0.6875 2.78125q0 0.171875 -0.015625 0.390625q-0.015625 0.203125 -0.03125 0.390625l-8.15625 0l0 -1.6875l6.625 0l-1.125 0.5q0 -0.78125 -0.328125 -1.359375q-0.3125 -0.578125 -0.875 -0.90625q-0.546875 -0.328125 -1.296875 -0.328125q-0.75 0 -1.328125 0.328125q-0.5625 0.328125 -0.875 0.921875q-0.3125 0.578125 -0.3125 1.375l0 0.453125q0 0.828125 0.359375 1.453125q0.359375 0.625 1.015625 0.953125q0.671875 0.3125 1.578125 0.3125q0.796875 0 1.390625 -0.234375q0.609375 -0.25 1.125 -0.734375l1.546875 1.6875q-0.6875 0.78125 -1.734375 1.203125q-1.046875 0.421875 -2.40625 0.421875zm7.866699 3.609375q-0.78125 0 -1.546875 -0.25q-0.765625 -0.234375 -1.25 -0.65625l1.0625 -2.078125q0.34375 0.296875 0.78125 0.46875q0.4375 0.171875 0.859375 0.171875q0.625 0 0.984375 -0.296875q0.359375 -0.28125 0.65625 -0.953125l0.53125 -1.234375l0.21875 -0.3125l3.59375 -8.65625l2.8125 0l-4.546875 10.640625q-0.484375 1.21875 -1.109375 1.90625q-0.625 0.6875 -1.375 0.96875q-0.75 0.28125 -1.671875 0.28125zm1.71875 -3.375l-4.484375 -10.421875l3.015625 0l3.46875 8.390625l-2.0 2.03125z" fill-rule="nonzero"/><path fill="#000000" fill-opacity="0.0" d="m756.81104 254.19655l210.2677 0l0 93.07088l-210.2677 0z" fill-rule="evenodd"/><path stroke="#95362d" stroke-width="4.0" stroke-linejoin="round" stroke-linecap="butt" d="m756.81104 254.19655l210.2677 0l0 93.07088l-210.2677 0z" fill-rule="evenodd"/><path fill="#000000" d="m770.44855 289.322l5.84375 0l0 2.1875l-5.84375 0l0 -2.1875zm0.21875 5.0l6.59375 0l0 2.25l-9.390625 0l0 -12.125l9.171875 0l0 2.25l-6.375 0l0 7.625zm8.8302 2.25l0 -12.125l2.328125 0l7.15625 8.734375l-1.125 0l0 -8.734375l2.765625 0l0 12.125l-2.296875 0l-7.1875 -8.734375l1.125 0l0 8.734375l-2.765625 0zm16.516663 0l0 -9.84375l-3.890625 0l0 -2.28125l10.578125 0l0 2.28125l-3.875 0l0 9.84375l-2.8125 0zm10.77124 -7.25l5.84375 0l0 2.1875l-5.84375 0l0 -2.1875zm0.21875 5.0l6.59375 0l0 2.25l-9.390625 0l0 -12.125l9.171875 0l0 2.25l-6.375 0l0 7.625zm8.8302 2.25l0 -12.125l5.25 0q1.625 0 2.796875 0.53125q1.1875 0.515625 1.828125 1.515625q0.640625 0.984375 0.640625 2.34375q0 1.359375 -0.640625 2.34375q-0.640625 0.96875 -1.828125 1.5q-1.171875 0.515625 -2.796875 0.515625l-3.6875 0l1.25 -1.234375l0 4.609375l-2.8125 0zm7.71875 0l-3.046875 -4.40625l3.0 0l3.078125 4.40625l-3.03125 0zm-4.90625 -4.296875l-1.25 -1.3125l3.53125 0q1.296875 0 1.9375 -0.5625q0.640625 -0.5625 0.640625 -1.5625q0 -1.0 -0.640625 -1.546875q-0.640625 -0.5625 -1.9375 -0.5625l-3.53125 0l1.25 -1.328125l0 6.875zm14.827454 4.296875l0 -12.125l2.8125 0l0 9.84375l6.078125 0l0 2.28125l-8.890625 0zm16.148743 0.203125q-1.4375 0 -2.65625 -0.46875q-1.21875 -0.46875 -2.125 -1.3125q-0.890625 -0.84375 -1.390625 -1.984375q-0.484375 -1.15625 -0.484375 -2.5q0 -1.359375 0.484375 -2.5q0.5 -1.140625 1.40625 -1.984375q0.90625 -0.859375 2.109375 -1.328125q1.21875 -0.46875 2.640625 -0.46875q1.4375 0 2.640625 0.46875q1.203125 0.46875 2.09375 1.328125q0.890625 0.84375 1.390625 1.984375q0.515625 1.125 0.515625 2.5q0 1.34375 -0.515625 2.5q-0.5 1.15625 -1.390625 2.0q-0.890625 0.828125 -2.09375 1.296875q-1.203125 0.46875 -2.625 0.46875zm-0.015625 -2.390625q0.8125 0 1.5 -0.265625q0.6875 -0.28125 1.203125 -0.796875q0.515625 -0.53125 0.796875 -1.234375q0.296875 -0.71875 0.296875 -1.578125q0 -0.875 -0.296875 -1.578125q-0.28125 -0.71875 -0.796875 -1.234375q-0.5 -0.515625 -1.203125 -0.796875q-0.6875 -0.28125 -1.5 -0.28125q-0.8125 0 -1.5 0.28125q-0.6875 0.28125 -1.203125 0.796875q-0.515625 0.515625 -0.8125 1.234375q-0.28125 0.703125 -0.28125 1.578125q0 0.84375 0.28125 1.5625q0.296875 0.71875 0.796875 1.25q0.515625 0.515625 1.203125 0.796875q0.703125 0.265625 1.515625 0.265625zm11.092163 2.1875l0 -9.84375l-3.890625 0l0 -2.28125l10.578125 0l0 2.28125l-3.875 0l0 9.84375l-2.8125 0zm10.882019 0l0 -9.84375l-3.890625 0l0 -2.28125l10.578125 0l0 2.28125l-3.875 0l0 9.84375l-2.8125 0zm10.77124 -7.25l5.84375 0l0 2.1875l-5.84375 0l0 -2.1875zm0.21875 5.0l6.59375 0l0 2.25l-9.390625 0l0 -12.125l9.171875 0l0 2.25l-6.375 0l0 7.625zm8.830261 2.25l0 -12.125l5.25 0q1.625 0 2.796875 0.53125q1.1875 0.515625 1.828125 1.515625q0.640625 0.984375 0.640625 2.34375q0 1.359375 -0.640625 2.34375q-0.640625 0.96875 -1.828125 1.5q-1.171875 0.515625 -2.796875 0.515625l-3.6875 0l1.25 -1.234375l0 4.609375l-2.8125 0zm7.71875 0l-3.046875 -4.40625l3.0 0l3.078125 4.40625l-3.03125 0zm-4.90625 -4.296875l-1.25 -1.3125l3.53125 0q1.296875 0 1.9375 -0.5625q0.640625 -0.5625 0.640625 -1.5625q0 -1.0 -0.640625 -1.546875q-0.640625 -0.5625 -1.9375 -0.5625l-3.53125 0l1.25 -1.328125l0 6.875zm12.765869 4.296875l0 -4.953125l0.640625 1.703125l-5.34375 -8.875l2.984375 0l4.09375 6.8125l-1.71875 0l4.109375 -6.8125l2.75 0l-5.328125 8.875l0.625 -1.703125l0 4.953125l-2.8125 0zm16.195679 -6.671875l5.828125 0l0 2.25l-5.828125 0l0 -2.25zm0.21875 6.671875l-2.8125 0l0 -12.125l9.171875 0l0 2.25l-6.359375 0l0 9.875zm14.029419 0.203125q-1.4375 0 -2.65625 -0.46875q-1.21875 -0.46875 -2.125 -1.3125q-0.890625 -0.84375 -1.390625 -1.984375q-0.484375 -1.15625 -0.484375 -2.5q0 -1.359375 0.484375 -2.5q0.5 -1.140625 1.40625 -1.984375q0.90625 -0.859375 2.109375 -1.328125q1.21875 -0.46875 2.640625 -0.46875q1.4375 0 2.640625 0.46875q1.203125 0.46875 2.09375 1.328125q0.890625 0.84375 1.390625 1.984375q0.515625 1.125 0.515625 2.5q0 1.34375 -0.515625 2.5q-0.5 1.15625 -1.390625 2.0q-0.890625 0.828125 -2.09375 1.296875q-1.203125 0.46875 -2.625 0.46875zm-0.015625 -2.390625q0.8125 0 1.5 -0.265625q0.6875 -0.28125 1.203125 -0.796875q0.515625 -0.53125 0.796875 -1.234375q0.296875 -0.71875 0.296875 -1.578125q0 -0.875 -0.296875 -1.578125q-0.28125 -0.71875 -0.796875 -1.234375q-0.5 -0.515625 -1.203125 -0.796875q-0.6875 -0.28125 -1.5 -0.28125q-0.8125 0 -1.5 0.28125q-0.6875 0.28125 -1.203125 0.796875q-0.515625 0.515625 -0.8125 1.234375q-0.28125 0.703125 -0.28125 1.578125q0 0.84375 0.28125 1.5625q0.296875 0.71875 0.796875 1.25q0.515625 0.515625 1.203125 0.796875q0.703125 0.265625 1.515625 0.265625zm8.749817 2.1875l0 -12.125l5.25 0q1.625 0 2.796875 0.53125q1.1875 0.515625 1.828125 1.515625q0.640625 0.984375 0.640625 2.34375q0 1.359375 -0.640625 2.34375q-0.640625 0.96875 -1.828125 1.5q-1.171875 0.515625 -2.796875 0.515625l-3.6875 0l1.25 -1.234375l0 4.609375l-2.8125 0zm7.71875 0l-3.046875 -4.40625l3.0 0l3.078125 4.40625l-3.03125 0zm-4.90625 -4.296875l-1.25 -1.3125l3.53125 0q1.296875 0 1.9375 -0.5625q0.640625 -0.5625 0.640625 -1.5625q0 -1.0 -0.640625 -1.546875q-0.640625 -0.5625 -1.9375 -0.5625l-3.53125 0l1.25 -1.328125l0 6.875z" fill-rule="nonzero"/><path fill="#000000" d="m803.4366 317.37198l5.40625 -12.125l2.765625 0l5.4375 12.125l-2.953125 0l-4.4375 -10.703125l1.109375 0l-4.453125 10.703125l-2.875 0zm2.703125 -2.59375l0.75 -2.140625l6.234375 0l0.765625 2.140625l-7.75 0zm22.927063 2.796875q-1.4375 0 -2.640625 -0.453125q-1.203125 -0.453125 -2.109375 -1.296875q-0.890625 -0.859375 -1.390625 -2.0q-0.484375 -1.15625 -0.484375 -2.515625q0 -1.375 0.484375 -2.515625q0.5 -1.140625 1.40625 -1.984375q0.90625 -0.859375 2.109375 -1.3125q1.21875 -0.46875 2.671875 -0.46875q1.609375 0 2.90625 0.546875q1.296875 0.53125 2.171875 1.5625l-1.796875 1.65625q-0.65625 -0.6875 -1.4375 -1.03125q-0.78125 -0.34375 -1.703125 -0.34375q-0.875 0 -1.609375 0.28125q-0.734375 0.28125 -1.265625 0.796875q-0.515625 0.515625 -0.8125 1.234375q-0.28125 0.703125 -0.28125 1.578125q0 0.84375 0.28125 1.5625q0.296875 0.703125 0.8125 1.234375q0.53125 0.53125 1.25 0.8125q0.71875 0.265625 1.59375 0.265625q0.828125 0 1.609375 -0.265625q0.796875 -0.265625 1.546875 -0.90625l1.59375 2.03125q-0.984375 0.734375 -2.296875 1.140625q-1.3125 0.390625 -2.609375 0.390625zm2.34375 -1.90625l0 -4.546875l2.5625 0l0 4.921875l-2.5625 -0.375zm5.1567993 1.703125l0 -12.125l2.8125 0l0 12.125l-2.8125 0zm8.277344 -6.671875l5.828125 0l0 2.25l-5.828125 0l0 -2.25zm0.21875 6.671875l-2.8125 0l0 -12.125l9.171875 0l0 2.25l-6.359375 0l0 9.875zm10.862366 0l0 -9.84375l-3.890625 0l0 -2.28125l10.578125 0l0 2.28125l-3.875 0l0 9.84375l-2.8125 0zm13.832275 0.203125q-1.40625 0 -2.609375 -0.453125q-1.203125 -0.453125 -2.09375 -1.296875q-0.890625 -0.859375 -1.390625 -2.0q-0.484375 -1.15625 -0.484375 -2.515625q0 -1.375 0.484375 -2.515625q0.5 -1.140625 1.390625 -1.984375q0.90625 -0.859375 2.09375 -1.3125q1.203125 -0.46875 2.625 -0.46875q1.578125 0 2.84375 0.546875q1.28125 0.546875 2.140625 1.609375l-1.796875 1.65625q-0.625 -0.703125 -1.390625 -1.0625q-0.765625 -0.359375 -1.65625 -0.359375q-0.859375 0 -1.578125 0.28125q-0.703125 0.28125 -1.21875 0.796875q-0.515625 0.515625 -0.8125 1.234375q-0.28125 0.703125 -0.28125 1.578125q0 0.859375 0.28125 1.578125q0.296875 0.703125 0.8125 1.234375q0.515625 0.515625 1.21875 0.796875q0.71875 0.265625 1.578125 0.265625q0.890625 0 1.65625 -0.34375q0.765625 -0.359375 1.390625 -1.09375l1.796875 1.671875q-0.859375 1.046875 -2.140625 1.609375q-1.265625 0.546875 -2.859375 0.546875zm5.0525513 -0.203125l5.40625 -12.125l2.765625 0l5.4375 12.125l-2.953125 0l-4.4375 -10.703125l1.109375 0l-4.453125 10.703125l-2.875 0zm2.703125 -2.59375l0.75 -2.140625l6.234375 0l0.765625 2.140625l-7.75 0zm12.163879 2.59375l0 -12.125l5.25 0q1.625 0 2.796875 0.53125q1.1875 0.515625 1.828125 1.515625q0.640625 0.984375 0.640625 2.34375q0 1.359375 -0.640625 2.34375q-0.640625 0.96875 -1.828125 1.5q-1.171875 0.515625 -2.796875 0.515625l-3.6875 0l1.25 -1.234375l0 4.609375l-2.8125 0zm7.71875 0l-3.046875 -4.40625l3.0 0l3.078125 4.40625l-3.03125 0zm-4.90625 -4.296875l-1.25 -1.3125l3.53125 0q1.296875 0 1.9375 -0.5625q0.640625 -0.5625 0.640625 -1.5625q0 -1.0 -0.640625 -1.546875q-0.640625 -0.5625 -1.9375 -0.5625l-3.53125 0l1.25 -1.328125l0 6.875zm9.923584 4.296875l0 -12.125l5.515625 0q1.96875 0 3.46875 0.75q1.515625 0.75 2.359375 2.109375q0.859375 1.34375 0.859375 3.203125q0 1.828125 -0.859375 3.203125q-0.84375 1.359375 -2.359375 2.109375q-1.5 0.75 -3.46875 0.75l-5.515625 0zm2.8125 -2.296875l2.5625 0q1.203125 0 2.09375 -0.453125q0.90625 -0.46875 1.390625 -1.3125q0.5 -0.859375 0.5 -2.0q0 -1.15625 -0.5 -2.0q-0.484375 -0.84375 -1.390625 -1.296875q-0.890625 -0.46875 -2.09375 -0.46875l-2.5625 0l0 7.53125zm11.500488 -1.90625l-0.53125 -7.921875l3.21875 0l-0.53125 7.921875l-2.15625 0zm1.078125 4.34375q-0.734375 0 -1.203125 -0.46875q-0.46875 -0.46875 -0.46875 -1.109375q0 -0.65625 0.46875 -1.09375q0.46875 -0.453125 1.203125 -0.453125q0.734375 0 1.1875 0.453125q0.46875 0.4375 0.46875 1.09375q0 0.640625 -0.46875 1.109375q-0.453125 0.46875 -1.1875 0.46875z" fill-rule="nonzero"/><path fill="#000000" fill-opacity="0.0" d="m539.55383 275.6139l162.2362 0l0 50.236237l-162.2362 0z" fill-rule="evenodd"/><path stroke="#95362d" stroke-width="4.0" stroke-linejoin="round" stroke-linecap="butt" d="m539.55383 275.6139l162.2362 0l0 50.236237l-162.2362 0z" fill-rule="evenodd"/><path fill="#000000" d="m569.8859 296.572l0 -9.84375l-3.890625 0l0 -2.28125l10.578125 0l0 2.28125l-3.875 0l0 9.84375l-2.8125 0zm5.992676 0l5.40625 -12.125l2.765625 0l5.4375 12.125l-2.953125 0l-4.4375 -10.703125l1.109375 0l-4.453125 10.703125l-2.875 0zm2.703125 -2.59375l0.75 -2.140625l6.234375 0l0.765625 2.140625l-7.75 0zm14.679504 -0.171875l-0.15625 -3.25l5.796875 -6.109375l3.125 0l-5.234375 5.625l-1.5625 1.671875l-1.96875 2.0625zm-2.515625 2.765625l0 -12.125l2.796875 0l0 12.125l-2.796875 0zm8.296875 0l-4.3125 -5.28125l1.84375 -2.0l5.75 7.28125l-3.28125 0zm7.104004 -7.25l5.84375 0l0 2.1875l-5.84375 0l0 -2.1875zm0.21875 5.0l6.59375 0l0 2.25l-9.390625 0l0 -12.125l9.171875 0l0 2.25l-6.375 0l0 7.625zm16.905945 2.453125q-1.265625 0 -2.515625 -0.328125q-1.25 -0.34375 -2.109375 -0.96875l1.09375 -2.140625q0.6875 0.5 1.609375 0.796875q0.921875 0.28125 1.859375 0.28125q1.046875 0 1.65625 -0.40625q0.609375 -0.421875 0.609375 -1.140625q0 -0.703125 -0.546875 -1.09375q-0.53125 -0.40625 -1.71875 -0.40625l-1.296875 0l0 -1.84375l3.390625 -3.828125l0.3125 1.0l-6.359375 0l0 -2.25l8.484375 0l0 1.8125l-3.359375 3.828125l-1.421875 -0.8125l0.8125 0q2.234375 0 3.375 1.015625q1.15625 1.0 1.15625 2.578125q0 1.015625 -0.546875 1.90625q-0.53125 0.890625 -1.640625 1.453125q-1.109375 0.546875 -2.84375 0.546875zm10.396362 -0.203125l5.40625 -12.125l2.765625 0l5.4375 12.125l-2.953125 0l-4.4375 -10.703125l1.109375 0l-4.453125 10.703125l-2.875 0zm2.703125 -2.59375l0.75 -2.140625l6.234375 0l0.765625 2.140625l-7.75 0zm12.163879 2.59375l0 -12.125l2.328125 0l7.15625 8.734375l-1.125 0l0 -8.734375l2.765625 0l0 12.125l-2.296875 0l-7.1875 -8.734375l1.125 0l0 8.734375l-2.765625 0zm14.001038 0l0 -12.125l5.515686 0q1.96875 0 3.46875 0.75q1.515625 0.75 2.359375 2.109375q0.859375 1.34375 0.859375 3.203125q0 1.828125 -0.859375 3.203125q-0.84375 1.359375 -2.359375 2.109375q-1.5 0.75 -3.46875 0.75l-5.515686 0zm2.8125 -2.296875l2.562561 0q1.203125 0 2.09375 -0.453125q0.90625 -0.46875 1.390625 -1.3125q0.5 -0.859375 0.5 -2.0q0 -1.15625 -0.5 -2.0q-0.484375 -0.84375 -1.390625 -1.296875q-0.890625 -0.46875 -2.09375 -0.46875l-2.562561 0l0 7.53125z" fill-rule="nonzero"/><path fill="#000000" d="m559.8437 317.57513q-1.4375 0 -2.640625 -0.453125q-1.203125 -0.453125 -2.109375 -1.296875q-0.890625 -0.859375 -1.390625 -2.0q-0.484375 -1.15625 -0.484375 -2.515625q0 -1.375 0.484375 -2.515625q0.5 -1.140625 1.40625 -1.984375q0.90625 -0.859375 2.109375 -1.3125q1.21875 -0.46875 2.671875 -0.46875q1.609375 0 2.90625 0.546875q1.296875 0.53125 2.171875 1.5625l-1.796875 1.65625q-0.65625 -0.6875 -1.4375 -1.03125q-0.78125 -0.34375 -1.703125 -0.34375q-0.875 0 -1.609375 0.28125q-0.734375 0.28125 -1.265625 0.796875q-0.515625 0.515625 -0.8125 1.234375q-0.28125 0.703125 -0.28125 1.578125q0 0.84375 0.28125 1.5625q0.296875 0.703125 0.8125 1.234375q0.53125 0.53125 1.25 0.8125q0.71875 0.265625 1.59375 0.265625q0.828125 0 1.609375 -0.265625q0.796875 -0.265625 1.546875 -0.90625l1.59375 2.03125q-0.984375 0.734375 -2.296875 1.140625q-1.3125 0.390625 -2.609375 0.390625zm2.34375 -1.90625l0 -4.546875l2.5625 0l0 4.921875l-2.5625 -0.375zm7.7349243 -5.546875l5.84375 0l0 2.1875l-5.84375 0l0 -2.1875zm0.21875 5.0l6.59375 0l0 2.25l-9.390625 0l0 -12.125l9.171875 0l0 2.25l-6.375 0l0 7.625zm11.345886 2.25l0 -9.84375l-3.890625 0l0 -2.28125l10.578125 0l0 2.28125l-3.875 0l0 9.84375l-2.8125 0zm11.503174 0l5.40625 -12.125l2.765625 0l5.4375 12.125l-2.953125 0l-4.4375 -10.703125l1.109375 0l-4.453125 10.703125l-2.875 0zm2.703125 -2.59375l0.75 -2.140625l6.234375 0l0.765625 2.140625l-7.75 0zm22.880188 2.796875q-1.40625 0 -2.609375 -0.453125q-1.203125 -0.453125 -2.09375 -1.296875q-0.890625 -0.859375 -1.390625 -2.0q-0.484375 -1.15625 -0.484375 -2.515625q0 -1.375 0.484375 -2.515625q0.5 -1.140625 1.390625 -1.984375q0.90625 -0.859375 2.09375 -1.3125q1.203125 -0.46875 2.625 -0.46875q1.578125 0 2.84375 0.546875q1.28125 0.546875 2.140625 1.609375l-1.796875 1.65625q-0.625 -0.703125 -1.390625 -1.0625q-0.765625 -0.359375 -1.65625 -0.359375q-0.859375 0 -1.578125 0.28125q-0.703125 0.28125 -1.21875 0.796875q-0.515625 0.515625 -0.8125 1.234375q-0.28125 0.703125 -0.28125 1.578125q0 0.859375 0.28125 1.578125q0.296875 0.703125 0.8125 1.234375q0.515625 0.515625 1.21875 0.796875q0.71875 0.265625 1.578125 0.265625q0.890625 0 1.65625 -0.34375q0.765625 -0.359375 1.390625 -1.09375l1.796875 1.671875q-0.859375 1.046875 -2.140625 1.609375q-1.265625 0.546875 -2.859375 0.546875zm12.519592 0q-1.4375 0 -2.65625 -0.46875q-1.21875 -0.46875 -2.125 -1.3125q-0.890625 -0.84375 -1.390625 -1.984375q-0.484375 -1.15625 -0.484375 -2.5q0 -1.359375 0.484375 -2.5q0.5 -1.140625 1.40625 -1.984375q0.90625 -0.859375 2.109375 -1.328125q1.21875 -0.46875 2.640625 -0.46875q1.4375 0 2.640625 0.46875q1.203125 0.46875 2.09375 1.328125q0.890625 0.84375 1.390625 1.984375q0.515625 1.125 0.515625 2.5q0 1.34375 -0.515625 2.5q-0.5 1.15625 -1.390625 2.0q-0.890625 0.828125 -2.09375 1.296875q-1.203125 0.46875 -2.625 0.46875zm-0.015625 -2.390625q0.8125 0 1.5 -0.265625q0.6875 -0.28125 1.203125 -0.796875q0.515625 -0.53125 0.796875 -1.234375q0.296875 -0.71875 0.296875 -1.578125q0 -0.875 -0.296875 -1.578125q-0.28125 -0.71875 -0.796875 -1.234375q-0.5 -0.515625 -1.203125 -0.796875q-0.6875 -0.28125 -1.5 -0.28125q-0.8125 0 -1.5 0.28125q-0.6875 0.28125 -1.203125 0.796875q-0.515625 0.515625 -0.8125 1.234375q-0.28125 0.703125 -0.28125 1.578125q0 0.84375 0.28125 1.5625q0.296875 0.71875 0.796875 1.25q0.515625 0.515625 1.203125 0.796875q0.703125 0.265625 1.515625 0.265625zm11.343567 -4.484375l5.828125 0l0 2.25l-5.828125 0l0 -2.25zm0.21875 6.671875l-2.8125 0l0 -12.125l9.171875 0l0 2.25l-6.359375 0l0 9.875zm10.853882 -6.671875l5.828125 0l0 2.25l-5.828125 0l0 -2.25zm0.21875 6.671875l-2.8125 0l0 -12.125l9.171875 0l0 2.25l-6.359375 0l0 9.875zm10.838196 -7.25l5.84375 0l0 2.1875l-5.84375 0l0 -2.1875zm0.21875 5.0l6.59375 0l0 2.25l-9.390625 0l0 -12.125l9.171875 0l0 2.25l-6.375 0l0 7.625zm11.408386 -5.0l5.84375 0l0 2.1875l-5.84375 0l0 -2.1875zm0.21875 5.0l6.59375 0l0 2.25l-9.390625 0l0 -12.125l9.171875 0l0 2.25l-6.375 0l0 7.625zm8.8302 -1.953125l-0.53125 -7.921875l3.21875 0l-0.53125 7.921875l-2.15625 0zm1.078125 4.34375q-0.734375 0 -1.203125 -0.46875q-0.46875 -0.46875 -0.46875 -1.109375q0 -0.65625 0.46875 -1.09375q0.46875 -0.453125 1.203125 -0.453125q0.734375 0 1.1875 0.453125q0.46875 0.4375 0.46875 1.09375q0 0.640625 -0.46875 1.109375q-0.453125 0.46875 -1.1875 0.46875z" fill-rule="nonzero"/><path fill="#000000" fill-opacity="0.0" d="m298.24985 280.90402l162.23624 0l0 39.653534l-162.23624 0z" fill-rule="evenodd"/><path stroke="#95362d" stroke-width="4.0" stroke-linejoin="round" stroke-linecap="butt" d="m298.24985 280.90402l162.23624 0l0 39.653534l-162.23624 0z" fill-rule="evenodd"/><path fill="#000000" d="m314.54672 307.17392q-1.4375 0 -2.640625 -0.453125q-1.203125 -0.453125 -2.109375 -1.296875q-0.890625 -0.859375 -1.390625 -2.0q-0.484375 -1.15625 -0.484375 -2.515625q0 -1.375 0.484375 -2.515625q0.5 -1.140625 1.40625 -1.984375q0.90625 -0.859375 2.109375 -1.3125q1.21875 -0.46875 2.671875 -0.46875q1.609375 0 2.90625 0.546875q1.296875 0.53125 2.171875 1.5625l-1.796875 1.65625q-0.65625 -0.6875 -1.4375 -1.03125q-0.78125 -0.34375 -1.703125 -0.34375q-0.875 0 -1.609375 0.28125q-0.734375 0.28125 -1.265625 0.796875q-0.515625 0.515625 -0.8125 1.234375q-0.28125 0.703125 -0.28125 1.578125q0 0.84375 0.28125 1.5625q0.296875 0.703125 0.8125 1.234375q0.53125 0.53125 1.25 0.8125q0.71875 0.265625 1.59375 0.265625q0.828125 0 1.609375 -0.265625q0.796875 -0.265625 1.546875 -0.90625l1.59375 2.03125q-0.984375 0.734375 -2.296875 1.140625q-1.3125 0.390625 -2.609375 0.390625zm2.34375 -1.90625l0 -4.546875l2.5625 0l0 4.921875l-2.5625 -0.375zm7.7349243 -5.546875l5.84375 0l0 2.1875l-5.84375 0l0 -2.1875zm0.21875 5.0l6.59375 0l0 2.25l-9.390625 0l0 -12.125l9.171875 0l0 2.25l-6.375 0l0 7.625zm11.345856 2.25l0 -9.84375l-3.890625 0l0 -2.28125l10.578125 0l0 2.28125l-3.875 0l0 9.84375l-2.8125 0zm11.503174 0l5.40625 -12.125l2.765625 0l5.4375 12.125l-2.953125 0l-4.4375 -10.703125l1.109375 0l-4.453125 10.703125l-2.875 0zm2.703125 -2.59375l0.75 -2.140625l6.234375 0l0.765625 2.140625l-7.75 0zm22.880219 2.796875q-1.40625 0 -2.609375 -0.453125q-1.203125 -0.453125 -2.09375 -1.296875q-0.890625 -0.859375 -1.390625 -2.0q-0.484375 -1.15625 -0.484375 -2.515625q0 -1.375 0.484375 -2.515625q0.5 -1.140625 1.390625 -1.984375q0.90625 -0.859375 2.09375 -1.3125q1.203125 -0.46875 2.625 -0.46875q1.578125 0 2.84375 0.546875q1.28125 0.546875 2.140625 1.609375l-1.796875 1.65625q-0.625 -0.703125 -1.390625 -1.0625q-0.765625 -0.359375 -1.65625 -0.359375q-0.859375 0 -1.578125 0.28125q-0.703125 0.28125 -1.21875 0.796875q-0.515625 0.515625 -0.8125 1.234375q-0.28125 0.703125 -0.28125 1.578125q0 0.859375 0.28125 1.578125q0.296875 0.703125 0.8125 1.234375q0.515625 0.515625 1.21875 0.796875q0.71875 0.265625 1.578125 0.265625q0.890625 0 1.65625 -0.34375q0.765625 -0.359375 1.390625 -1.09375l1.796875 1.671875q-0.859375 1.046875 -2.140625 1.609375q-1.265625 0.546875 -2.859375 0.546875zm12.519562 0q-1.4375 0 -2.65625 -0.46875q-1.21875 -0.46875 -2.125 -1.3125q-0.890625 -0.84375 -1.390625 -1.984375q-0.484375 -1.15625 -0.484375 -2.5q0 -1.359375 0.484375 -2.5q0.5 -1.140625 1.40625 -1.984375q0.90625 -0.859375 2.109375 -1.328125q1.21875 -0.46875 2.640625 -0.46875q1.4375 0 2.640625 0.46875q1.203125 0.46875 2.09375 1.328125q0.890625 0.84375 1.390625 1.984375q0.515625 1.125 0.515625 2.5q0 1.34375 -0.515625 2.5q-0.5 1.15625 -1.390625 2.0q-0.890625 0.828125 -2.09375 1.296875q-1.203125 0.46875 -2.625 0.46875zm-0.015625 -2.390625q0.8125 0 1.5 -0.265625q0.6875 -0.28125 1.203125 -0.796875q0.515625 -0.53125 0.796875 -1.234375q0.296875 -0.71875 0.296875 -1.578125q0 -0.875 -0.296875 -1.578125q-0.28125 -0.71875 -0.796875 -1.234375q-0.5 -0.515625 -1.203125 -0.796875q-0.6875 -0.28125 -1.5 -0.28125q-0.8125 0 -1.5 0.28125q-0.6875 0.28125 -1.203125 0.796875q-0.515625 0.515625 -0.8125 1.234375q-0.28125 0.703125 -0.28125 1.578125q0 0.84375 0.28125 1.5625q0.296875 0.71875 0.796875 1.25q0.515625 0.515625 1.203125 0.796875q0.703125 0.265625 1.515625 0.265625zm11.343597 -4.484375l5.828125 0l0 2.25l-5.828125 0l0 -2.25zm0.21875 6.671875l-2.8125 0l0 -12.125l9.171875 0l0 2.25l-6.359375 0l0 9.875zm10.853851 -6.671875l5.828125 0l0 2.25l-5.828125 0l0 -2.25zm0.21875 6.671875l-2.8125 0l0 -12.125l9.171875 0l0 2.25l-6.359375 0l0 9.875zm10.838226 -7.25l5.84375 0l0 2.1875l-5.84375 0l0 -2.1875zm0.21875 5.0l6.59375 0l0 2.25l-9.390625 0l0 -12.125l9.171875 0l0 2.25l-6.375 0l0 7.625zm11.408356 -5.0l5.84375 0l0 2.1875l-5.84375 0l0 -2.1875zm0.21875 5.0l6.59375 0l0 2.25l-9.390625 0l0 -12.125l9.171875 0l0 2.25l-6.375 0l0 7.625zm8.830231 -1.953125l-0.53125 -7.921875l3.21875 0l-0.53125 7.921875l-2.15625 0zm1.078125 4.34375q-0.734375 0 -1.203125 -0.46875q-0.46875 -0.46875 -0.46875 -1.109375q0 -0.65625 0.46875 -1.09375q0.46875 -0.453125 1.203125 -0.453125q0.734375 0 1.1875 0.453125q0.46875 0.4375 0.46875 1.09375q0 0.640625 -0.46875 1.109375q-0.453125 0.46875 -1.1875 0.46875z" fill-rule="nonzero"/></g></svg>