<?xml version="1.0" standalone="no"?>
<!DOCTYPE svg PUBLIC "-//W3C//DTD SVG 20010904//EN"
 "http://www.w3.org/TR/2001/REC-SVG-20010904/DTD/svg10.dtd">
<svg version="1.0" xmlns="http://www.w3.org/2000/svg"
 width="1280.000000pt" height="444.000000pt" viewBox="0 0 1280.000000 444.000000"
 preserveAspectRatio="xMidYMid meet">
<metadata>
Created by potrace 1.16, written by Peter Selinger 2001-2019
</metadata>
<g transform="translate(0.000000,444.000000) scale(0.100000,-0.100000)"
fill="#000000" stroke="none">
<path d="M3060 4351 c-296 -66 -544 -264 -623 -499 l-23 -69 -55 44 c-64 52
-218 132 -309 161 -265 86 -552 63 -802 -65 -110 -56 -194 -120 -283 -214
-123 -130 -205 -279 -252 -457 -22 -83 -26 -119 -26 -247 -1 -167 14 -256 64
-386 95 -246 299 -462 542 -574 270 -124 603 -122 873 4 283 133 489 382 571
689 23 85 26 117 26 257 0 141 -3 172 -26 260 -43 158 -124 315 -221 422 l-46
51 11 54 c21 98 74 185 168 278 126 125 274 202 449 236 243 47 515 -40 717
-228 l60 -56 -38 -15 c-20 -9 -37 -18 -37 -21 0 -2 44 -57 99 -122 l98 -119
-58 -71 c-170 -205 -247 -439 -236 -714 11 -268 110 -499 294 -685 183 -185
371 -272 666 -310 l47 -6 0 -345 0 -344 -45 0 c-25 0 -45 -3 -45 -7 0 -3 23
-68 50 -143 28 -75 50 -140 50 -143 0 -4 -228 -8 -507 -9 l-508 -3 -3 -269
c-2 -209 1 -271 10 -278 7 -4 472 -8 1034 -8 780 0 1023 3 1032 12 18 18 17
521 -1 537 -10 7 -165 12 -514 13 l-501 3 53 145 52 145 -48 3 -49 3 0 344 0
344 58 6 c259 29 467 124 642 295 100 98 155 176 216 305 174 367 110 825
-157 1128 -38 44 -41 50 -35 90 16 107 111 248 228 342 80 64 241 145 338 171
100 27 292 25 394 -4 144 -41 370 -179 414 -252 15 -25 16 -24 -20 -36 -16 -5
-28 -13 -28 -19 0 -5 43 -61 95 -123 52 -62 95 -116 95 -121 0 -5 -8 -15 -17
-22 -36 -30 -136 -176 -173 -253 -228 -472 -72 -1047 360 -1329 155 -101 297
-150 493 -172 l57 -6 0 -345 0 -344 -45 0 c-27 0 -45 -5 -45 -11 0 -9 67 -199
95 -271 7 -17 -21 -18 -497 -18 -379 0 -507 -3 -516 -12 -18 -18 -17 -521 2
-537 10 -8 290 -10 1042 -9 l1029 3 0 275 0 275 -508 3 -508 2 7 23 c3 12 26
76 50 141 24 66 44 123 44 128 0 4 -20 8 -45 8 l-45 0 0 344 0 345 48 6 c185
24 281 52 409 120 263 139 451 380 525 671 19 75 23 115 23 254 0 148 -3 175
-28 263 -44 159 -113 292 -220 419 -38 45 -39 50 -33 95 10 81 70 187 150 268
195 198 478 298 722 254 174 -30 354 -122 468 -238 l50 -50 -38 -16 c-33 -14
-36 -18 -24 -33 11 -15 138 -169 175 -213 13 -15 9 -23 -30 -67 -60 -68 -97
-123 -142 -212 -207 -411 -125 -904 203 -1222 182 -176 358 -257 645 -293 l47
-6 0 -180 0 -179 -45 0 c-25 0 -45 -1 -45 -2 0 -2 24 -68 54 -148 l54 -145
-662 -5 -661 -5 0 -605 0 -605 1340 0 1340 0 0 605 0 605 -661 5 -660 5 52
145 52 145 -49 3 -49 3 0 179 0 179 58 6 c272 30 473 124 653 304 360 359 409
916 119 1335 -59 86 -189 214 -272 269 -261 172 -599 222 -893 130 -134 -42
-278 -121 -367 -201 l-38 -34 0 151 c0 97 -4 151 -10 151 -6 0 -26 -7 -45 -15
l-35 -14 -48 51 c-106 114 -277 216 -437 259 -115 32 -317 32 -431 2 -280 -76
-515 -273 -585 -491 l-22 -69 -63 48 c-137 103 -317 177 -489 200 -265 35
-563 -45 -772 -206 l-73 -55 0 145 c0 80 -4 145 -9 145 -5 0 -26 -6 -48 -14
l-40 -14 -59 60 c-111 113 -249 195 -411 245 -78 23 -104 26 -233 26 -129 0
-155 -3 -233 -26 -277 -85 -503 -280 -565 -489 -9 -32 -19 -58 -22 -58 -3 0
-32 20 -65 45 -85 65 -244 141 -360 172 -88 23 -120 26 -260 27 -136 0 -173
-3 -248 -23 -159 -41 -309 -115 -419 -208 l-43 -36 -3 147 c-1 80 -6 146 -11
146 -5 0 -26 -6 -48 -14 l-40 -14 -36 43 c-88 105 -285 223 -443 265 -115 31
-284 36 -394 11z m-990 -1350 l0 -89 -55 -1 c-45 0 -57 4 -70 22 -19 28 -19
57 1 86 13 18 24 22 50 19 31 -4 34 -2 34 24 0 21 5 28 20 28 19 0 20 -7 20
-89z m-1075 49 c25 -23 32 -60 19 -95 -10 -25 -59 -45 -114 -45 l-50 0 0 78
c0 43 3 82 8 86 4 4 31 6 60 4 37 -3 59 -11 77 -28z m9570 5 c29 -28 31 -42 9
-73 -14 -21 -14 -25 0 -47 16 -24 15 -25 -5 -25 -12 0 -30 11 -41 25 -11 14
-26 25 -34 25 -8 0 -14 -10 -14 -25 0 -18 -5 -25 -20 -25 -18 0 -20 7 -20 85
l0 85 50 0 c41 0 56 -5 75 -25z m-9338 -52 l15 -38 15 38 c21 51 46 49 63 -5
l13 -43 14 43 c10 29 20 42 33 42 18 0 18 -3 -4 -62 -30 -78 -57 -90 -76 -32
l-13 38 -14 -37 c-22 -55 -46 -49 -72 19 -25 67 -26 74 -5 74 8 0 22 -17 31
-37z m1204 16 c41 -41 6 -115 -51 -107 -25 4 -29 1 -32 -21 -2 -15 -10 -27
-20 -29 -16 -3 -18 6 -18 86 l0 90 51 0 c37 1 55 -4 70 -19z m160 0 c41 -41 6
-115 -51 -107 -25 4 -29 1 -32 -21 -2 -15 -9 -26 -18 -26 -12 0 -16 18 -18 87
l-3 86 51 0 c38 1 56 -4 71 -19z m2047 -58 c-3 -72 -4 -76 -32 -90 -33 -16
-91 -4 -91 19 0 11 11 14 43 12 25 -2 42 1 42 7 0 6 -15 11 -34 11 -25 0 -39
7 -50 22 -38 54 -4 97 74 96 l51 -1 -3 -76z m547 56 c19 -28 19 -57 -1 -86
-13 -18 -24 -22 -50 -19 -32 4 -34 2 -34 -25 0 -22 -4 -28 -17 -25 -15 3 -18
17 -21 90 l-3 86 55 1 c46 0 58 -3 71 -22z m2527 6 c10 -9 18 -30 18 -48 0
-42 -29 -69 -70 -63 -28 4 -30 2 -30 -24 0 -23 -4 -29 -17 -26 -15 3 -18 17
-21 90 l-3 86 53 0 c35 1 59 -5 70 -15z m4348 -2343 l0 -550 -1285 0 -1285 0
0 550 0 550 1285 0 1285 0 0 -550z m-6330 0 l0 -220 -985 0 -985 0 0 220 0
220 985 0 985 0 0 -220z m3010 0 l0 -220 -985 0 -985 0 0 220 0 220 985 0 985
0 0 -220z"/>
<path d="M9891 1003 c-33 -27 -38 -82 -11 -116 17 -22 29 -27 65 -27 65 0 75
7 75 51 0 35 -3 39 -25 39 -20 0 -25 -5 -25 -25 0 -20 -5 -25 -25 -25 -18 0
-26 7 -31 25 -10 39 12 57 57 50 43 -7 63 10 34 32 -26 18 -89 16 -114 -4z"/>
<path d="M10040 940 l0 -80 65 0 c58 0 65 2 65 20 0 17 -7 20 -45 20 -25 0
-45 5 -45 10 0 6 16 10 35 10 28 0 35 4 35 20 0 16 -7 20 -35 20 -19 0 -35 5
-35 10 0 6 18 10 40 10 33 0 40 3 40 20 0 18 -7 20 -60 20 l-60 0 0 -80z"/>
<path d="M10394 946 c-19 -41 -34 -77 -34 -80 0 -13 48 -5 54 9 3 9 18 15 36
15 18 0 33 -6 36 -15 5 -13 54 -23 54 -11 0 2 -16 38 -35 80 -47 103 -64 103
-111 2z"/>
<path d="M10781 1003 c-12 -10 -24 -35 -27 -55 -9 -51 28 -88 86 -88 58 0 95
37 86 88 -7 47 -37 72 -86 72 -21 0 -47 -8 -59 -17z"/>
<path d="M11220 940 l0 -80 65 0 c58 0 65 2 65 20 0 17 -7 20 -40 20 -22 0
-40 5 -40 10 0 6 16 10 35 10 28 0 35 4 35 20 0 16 -7 20 -35 20 -19 0 -35 5
-35 10 0 6 18 10 40 10 33 0 40 3 40 20 0 18 -7 20 -65 20 l-65 0 0 -80z"/>
<path d="M11370 940 l0 -80 60 0 c53 0 60 2 60 20 0 17 -7 20 -40 20 -22 0
-40 5 -40 10 0 6 16 10 35 10 28 0 35 4 35 20 0 16 -7 20 -35 20 -19 0 -35 5
-35 10 0 6 18 10 40 10 33 0 40 3 40 20 0 18 -7 20 -60 20 l-60 0 0 -80z"/>
<path d="M10020 680 c0 -73 2 -80 20 -80 16 0 20 7 20 30 0 27 3 30 30 30 27
0 30 -3 30 -30 0 -25 4 -30 25 -30 25 0 25 1 25 80 0 79 0 80 -25 80 -21 0
-25 -5 -25 -30 0 -27 -3 -30 -30 -30 -27 0 -30 3 -30 30 0 23 -4 30 -20 30
-18 0 -20 -7 -20 -80z"/>
<path d="M10190 680 l0 -80 65 0 c58 0 65 2 65 20 0 17 -7 20 -40 20 -22 0
-40 5 -40 10 0 6 16 10 35 10 28 0 35 4 35 20 0 16 -7 20 -35 20 -19 0 -35 5
-35 10 0 6 18 10 40 10 33 0 40 3 40 20 0 18 -7 20 -65 20 l-65 0 0 -80z"/>
<path d="M10560 680 c0 -73 2 -80 20 -80 16 0 20 7 20 30 0 27 3 30 30 30 27
0 30 -3 30 -30 0 -29 1 -30 49 -30 34 0 51 4 55 15 3 9 18 15 36 15 18 0 33
-6 36 -15 4 -8 17 -15 31 -15 28 0 29 -2 -15 98 -23 53 -30 62 -51 60 -19 -2
-30 -18 -57 -78 l-33 -75 -1 78 c0 75 -1 77 -25 77 -21 0 -25 -5 -25 -30 0
-27 -3 -30 -30 -30 -27 0 -30 3 -30 30 0 23 -4 30 -20 30 -18 0 -20 -7 -20
-80z"/>
<path d="M10900 680 c0 -73 2 -80 20 -80 17 0 20 7 20 42 l0 42 32 -42 c21
-28 40 -42 55 -42 22 0 23 3 23 80 0 79 0 80 -25 80 -22 0 -25 -4 -25 -37 l-1
-38 -32 38 c-18 20 -40 37 -49 37 -16 0 -18 -10 -18 -80z"/>
<path d="M11230 680 l0 -80 65 0 c58 0 65 2 65 20 0 17 -7 20 -40 20 -22 0
-40 5 -40 10 0 6 16 10 35 10 28 0 35 4 35 20 0 16 -7 20 -35 20 -19 0 -35 5
-35 10 0 6 18 10 40 10 33 0 40 3 40 20 0 18 -7 20 -65 20 l-65 0 0 -80z"/>
<path d="M11585 735 c-31 -30 -32 -73 -4 -109 16 -21 29 -26 63 -26 51 0 82
20 91 59 7 33 -15 85 -40 95 -37 14 -86 6 -110 -19z"/>
<path d="M9770 489 c0 -7 10 -43 22 -81 20 -61 25 -68 48 -68 23 0 29 6 40 43
l13 42 14 -42 c12 -34 19 -43 38 -43 20 0 27 10 46 68 12 37 24 73 27 80 2 7
-5 12 -20 12 -20 0 -27 -8 -39 -47 l-15 -48 -13 48 c-11 38 -18 47 -36 47 -17
0 -25 -10 -36 -47 l-15 -48 -15 45 c-11 33 -22 46 -37 48 -13 2 -22 -2 -22 -9z"/>
<path d="M10100 420 c0 -73 2 -80 19 -80 16 0 20 8 23 41 l3 41 30 -41 c19
-26 38 -41 53 -41 21 0 22 4 22 80 0 79 0 80 -25 80 -22 0 -25 -4 -25 -37 l-1
-38 -30 38 c-17 20 -40 37 -50 37 -17 0 -19 -8 -19 -80z"/>
<path d="M10352 428 c-18 -40 -32 -76 -32 -80 0 -15 41 -8 46 7 8 20 64 19 78
-1 7 -9 21 -14 33 -12 19 3 19 6 -15 81 -28 62 -39 77 -57 77 -17 0 -28 -14
-53 -72z"/>
<path d="M10592 493 c-22 -9 -44 -63 -37 -94 8 -37 40 -59 86 -59 59 0 69 8
69 51 0 32 -3 39 -20 39 -15 0 -20 -7 -20 -26 0 -22 -4 -25 -26 -22 -35 4 -53
31 -38 56 8 11 24 17 52 17 49 0 64 12 38 31 -19 14 -78 18 -104 7z"/>
<path d="M10800 420 c0 -79 0 -80 25 -80 20 0 25 5 25 25 0 22 4 25 35 25 28
0 35 4 35 20 0 16 -7 20 -35 20 -24 0 -35 5 -35 15 0 12 13 15 60 15 l60 0 0
-60 c0 -57 1 -60 25 -60 24 0 25 3 25 60 0 56 2 60 23 60 20 0 22 -5 22 -41 0
-62 27 -78 121 -77 56 0 74 4 74 14 0 20 66 19 74 -1 4 -11 20 -15 56 -15 43
0 50 3 50 20 0 11 6 20 13 20 7 0 18 -9 25 -20 7 -12 23 -20 38 -20 25 0 25 1
12 23 -12 18 -12 26 -1 47 27 54 -6 90 -84 90 l-53 0 0 -77 -1 -78 -33 75
c-28 63 -37 75 -60 78 -14 2 -26 -1 -26 -6 0 -5 -12 -35 -26 -66 -17 -37 -30
-54 -37 -49 -7 4 -27 8 -46 8 -41 0 -62 25 -45 53 9 12 23 16 52 14 46 -3 64
14 37 35 -25 18 -85 17 -113 -3 -20 -14 -22 -14 -22 0 0 14 -19 16 -135 16
l-135 0 0 -80z"/>
<path d="M11550 420 l0 -80 59 0 c75 0 102 20 104 74 2 57 -36 86 -109 86
l-54 0 0 -80z"/>
<path d="M3878 750 c-25 -15 -41 -72 -29 -103 12 -32 39 -47 85 -47 56 0 66 8
66 51 0 32 -3 39 -20 39 -15 0 -20 -7 -20 -26 0 -22 -4 -25 -26 -22 -35 4 -53
31 -38 56 8 11 24 17 52 17 49 0 64 12 38 31 -23 16 -83 18 -108 4z"/>
<path d="M4020 680 l0 -80 65 0 c58 0 65 2 65 20 0 17 -7 20 -40 20 -22 0 -40
5 -40 10 0 6 16 10 35 10 28 0 35 4 35 20 0 16 -7 20 -35 20 -19 0 -35 5 -35
10 0 6 28 10 65 10 l65 0 0 -60 c0 -53 2 -60 20 -60 18 0 20 7 20 60 0 57 1
60 25 60 18 0 25 5 25 20 0 19 -7 20 -135 20 l-135 0 0 -80z"/>
<path d="M4375 684 c-19 -42 -35 -78 -35 -80 0 -12 49 -2 54 11 3 9 18 15 36
15 18 0 33 -6 36 -15 6 -14 54 -22 54 -9 0 3 -15 39 -34 80 -47 101 -64 101
-111 -2z"/>
<path d="M4768 746 c-40 -30 -43 -104 -5 -131 12 -8 40 -15 63 -15 34 0 47 5
63 26 46 58 8 134 -66 134 -21 0 -46 -6 -55 -14z"/>
<path d="M5200 680 l0 -80 65 0 c58 0 65 2 65 20 0 17 -7 20 -40 20 -22 0 -40
5 -40 10 0 6 16 10 35 10 28 0 35 4 35 20 0 16 -7 20 -35 20 -19 0 -35 5 -35
10 0 6 18 10 40 10 33 0 40 3 40 20 0 18 -7 20 -65 20 l-65 0 0 -80z"/>
<path d="M5350 680 l0 -80 65 0 c58 0 65 2 65 20 0 17 -7 20 -45 20 -25 0 -45
5 -45 10 0 6 16 10 35 10 28 0 35 4 35 20 0 16 -7 20 -35 20 -19 0 -35 5 -35
10 0 6 18 10 40 10 33 0 40 3 40 20 0 18 -7 20 -60 20 l-60 0 0 -80z"/>
<path d="M6935 735 c-31 -30 -32 -73 -4 -109 19 -24 27 -27 73 -24 l51 3 3 43
c3 37 1 42 -17 42 -16 0 -21 -6 -21 -26 0 -22 -4 -25 -27 -22 -20 2 -29 9 -31
26 -5 35 16 55 52 48 17 -3 38 -1 46 4 13 9 12 12 -4 25 -32 24 -93 19 -121
-10z"/>
<path d="M7090 680 l0 -80 60 0 c53 0 60 2 60 20 0 17 -7 20 -40 20 -22 0 -40
5 -40 10 0 6 16 10 35 10 28 0 35 4 35 20 0 16 -7 20 -35 20 -19 0 -35 5 -35
10 0 6 28 10 65 10 l65 0 0 -60 c0 -57 1 -60 25 -60 24 0 25 3 25 60 0 57 1
60 25 60 18 0 25 5 25 20 0 19 -7 20 -135 20 l-135 0 0 -80z"/>
<path d="M7442 686 c-17 -42 -32 -78 -32 -81 0 -3 11 -5 25 -5 16 0 25 6 25
15 0 21 59 20 74 -1 7 -9 21 -14 33 -12 20 3 20 5 -12 78 -27 60 -38 76 -57
78 -20 3 -27 -7 -56 -72z"/>
<path d="M7825 735 c-31 -30 -32 -73 -4 -109 38 -48 138 -30 153 28 7 29 -8
74 -32 92 -29 23 -90 17 -117 -11z"/>
<path d="M8270 680 l0 -80 65 0 c58 0 65 2 65 20 0 17 -7 20 -45 20 -25 0 -45
5 -45 10 0 6 16 10 35 10 28 0 35 4 35 20 0 16 -7 20 -35 20 -19 0 -35 5 -35
10 0 6 18 10 40 10 33 0 40 3 40 20 0 18 -7 20 -60 20 l-60 0 0 -80z"/>
<path d="M8410 680 l0 -80 65 0 c58 0 65 2 65 20 0 17 -7 20 -40 20 -22 0 -40
5 -40 10 0 6 16 10 35 10 28 0 35 4 35 20 0 16 -7 20 -35 20 -19 0 -35 5 -35
10 0 6 18 10 40 10 33 0 40 3 40 20 0 18 -7 20 -65 20 l-65 0 0 -80z"/>
</g>
</svg>
